<ttFont>
          <CharString index="0">
            -50 callsubr
            5 callsubr
            hintmask 1011001100000000
            -66 callsubr
            -431 vlineto
            hintmask 0111001100000000
            -105 callsubr
            hintmask 1011001101000000
            -46 callgsubr
            hintmask 0111001101000000
            -53 callsubr
            hintmask 1011001101000000
            -107 callgsubr
            28 31 -3 -2 22 hvcurveto
            hintmask 1011001110000000
            -75 callsubr
            hintmask 1010011110000000
            -52 callgsubr
            -224 hlineto
            hintmask 1011001100000000
            62 callsubr
            return
          </CharString>
          <CharString index="1">
            -32 callgsubr
            hstemhm
            105 95 350 72 hintmask 10101100
            hintmask 10011100
            -30 callgsubr
            hintmask 10101100
            -20 -86 5 0 hvcurveto
            -5 -54 rlineto
            hintmask 10011100
            78 -12 rlineto
            hintmask 11001100
            -97 callgsubr
            hintmask 10101100
            6 callgsubr
            hintmask 10011100
            -92 callgsubr
            hintmask 10101100
            -17 callgsubr
            hintmask 10011100
            -297 vlineto
            hintmask 11001100
            -90 callgsubr
            return
          </CharString>
          <CharString index="2">
            -17 -7 -46 -2 -13 vhcurveto
            -79 90 callsubr
            return
          </CharString>
          <CharString index="3">
            376 720 rmoveto
            -221 -113 61 callsubr
            113 -149 221 86 76 18 16 67 hvcurveto
            147 vlineto
            50 9 103 0 vhcurveto
            -18 17 rlineto
            0 -51 -3 -20 vhcurveto
            -111 hlineto
            -5 -58 106 -8 rlineto
            0 10 -51 -20 vvcurveto
            -68 vlineto
            -11 -6 -28 -6 -26 vhcurveto
            -12 -45 -55 -8 -40 hhcurveto
            -155 -75 137 173 173 75 136 155 hvcurveto
            return
          </CharString>
          <CharString index="4">
            45 callgsubr
            124 vlineto
            153 -46 59 -119 -60 -61 -8 -16 -60 vhcurveto
            11 -136 58 3 rlineto
            41 vlineto
            7 42 rlineto
            12 25 37 8 33 hhcurveto
            63 31 -45 -93 hvcurveto
            -33 vlineto
            -160 -27 rlineto
            -90 -15 -44 -46 -72 vvcurveto
            return
          </CharString>
          <CharString index="5">
            -16 callsubr
            -36 18 -23 36 36 18 23 36 -16 callgsubr
            hvcurveto
            return
          </CharString>
          <CharString index="6">
            500 246 rmoveto
            155 -76 102 -154 -152 -78 -104 -153 -152 78 -104 152 152 78 104 152 vhcurveto
            -94 hmoveto
            -103 -33 -96 -103 -103 -33 96 103 103 33 97 103 103 33 -97 -103 vhcurveto
            return
          </CharString>
          <CharString index="7">
            -8 -15 60 620 55 hstemhm
            57 73 -67 100 241 105 -100 66 hintmask 11011000
            hintmask 11101000
            65 192 rmoveto
            -15 -154 rlineto
            0 86 -53 134 132 107 64 133 vhcurveto
            hintmask 11011000
            227 -346 -12 157 vvcurveto
            74 52 37 62 vhcurveto
            hintmask 11010100
            45 32 -4 -18 42 hvcurveto
            6 -23 7 -24 -9 vvcurveto
            -44 vlineto
            59 -6 14 151 rlineto
            16 -64 -73 16 -65 hhcurveto
            -124 -93 -65 -120 hvcurveto
            hintmask 11011000
            -216 341 15 -164 vvcurveto
            -81 -52 -44 -80 vhcurveto
            hintmask 11101000
            -49 -46 13 14 -35 hvcurveto
            -5 22 -6 32 12 vvcurveto
            48 vlineto
            return
          </CharString>
          <CharString index="8">
            50 7 103 0 22 callsubr
            return
          </CharString>
          <CharString index="9">
            -102 callsubr
            -236 hmoveto
            -102 callsubr
            endchar
          </CharString>
          <CharString index="10">
            -39 callgsubr
            hstemhm
            136 91 hintmask 10010100
            hintmask 10001100
            78 callsubr
            hintmask 10010100
            -92 callgsubr
            hintmask 10001100
            17 callsubr
            hintmask 01100100
            74 callgsubr
            -431 -27 callsubr
            98 5 20 80 66 -62 callsubr
            hintmask 10010100
            -90 -87 callgsubr
            hintmask 01010100
            371 vlineto
            hintmask 10010100
            -51 callsubr
            return
          </CharString>
          <CharString index="11">
            -33 callsubr
            hstemhm
            10 650 hintmask 10111000
            -75 callgsubr
            hintmask 01111000
            -47 callgsubr
            hintmask 10111000
            -79 callgsubr
            hintmask 01111000
            -47 callsubr
            hintmask 10111000
            -42 callsubr
            return
          </CharString>
          <CharString index="12">
            -78 56 -50 89 65 68 38 51 26 vhcurveto
            -10 148 rmoveto
            -60 vlineto
            -65 -10 -56 -48 -67 hhcurveto
            -47 -26 29 50 35 23 25 40 7 hvcurveto
            return
          </CharString>
          <CharString index="13">
            86 callgsubr
            hintmask 01101100
            hintmask 01101010
            796 441 rmoveto
            hintmask 01011010
            -3 58 rlineto
            0 -33 -5 -80 vhcurveto
            hintmask 10101010
            -20 -74 3 0 hvcurveto
            -5 -52 85 -11 -7 -32 -8 -38 -5 -13 rlinecurve
            -83 -248 -134 391 rlineto
            -39 hlineto
            -127 -391 -86 246 -5 13 -10 38 -9 34 rlinecurve
            80 7 -3 58 rlineto
            hintmask 01011100
            0 -70 -5 -80 -20 -49 3 0 vhcurveto
            hintmask 01101010
            -5 -52 41 -11 18 -33 18 -43 5 -14 rlinecurve
            8 -22 123 -322 0 vvcurveto
            67 hlineto
            114 335 118 -335 rlineto
            68 25 callgsubr
            return
          </CharString>
          <CharString index="14">
            90 callsubr
            93 callsubr
            return
          </CharString>
          <CharString index="15">
            270 503 rmoveto
            -153 -77 -104 -153 -153 76 -103 153 104 65 54 0 hvcurveto
            -28 47 rlineto
            0 -62 -36 -78 -100 -36 91 100 100 36 100 100 29 24 -6 -24 29 vhcurveto
            4 -14 3 -13 -7 vvcurveto
            -36 vlineto
            58 -3 10 125 rlineto
            20 -60 -38 15 -59 hhcurveto
            return
          </CharString>
          <CharString index="16">
            90 callsubr
            0 91 5 20 return
          </CharString>
          <CharString index="17">
            -20 hstemhm
            47 63 -62 80 162 64 -53 82 hintmask 11101010
            210 503 rmoveto
            -93 -69 -49 -84 hvcurveto
            -162 253 14 -105 vvcurveto
            -53 -35 -23 -56 vhcurveto
            hintmask 11110010
            -32 -29 6 18 -23 hvcurveto
            -8 23 -7 26 10 vvcurveto
            38 vlineto
            -58 3 89 callgsubr
            66 -39 99 109 67 41 105 vhcurveto
            hintmask 11101010
            13 callgsubr
            hintmask 11101100
            -42 callgsubr
            hintmask 11101010
            10 -48 -54 7 -48 hhcurveto
            return
          </CharString>
          <CharString index="18">
            -86 callgsubr
            -136 vlineto
            -135 24 -92 138 93 43 55 33 19 vhcurveto
            13 -78 rlineto
            return
          </CharString>
          <CharString index="19">
            0 -10 -66 callgsubr
            -58 hlineto
            -20 -67 -20 callsubr
            return
          </CharString>
          <CharString index="20">
            rmoveto
            -38 -21 -27 -38 -38 21 -26 38 -76 callgsubr
            return
          </CharString>
          <CharString index="21">
            rmoveto
            -166 -169 -83 callgsubr
          </CharString>
          <CharString index="22">
            -76 -91 callsubr
            return
          </CharString>
          <CharString index="23">
            -20 -62 3 0 hvcurveto
            -5 -52 49 -12 19 -33 22 -42 10 -25 rlinecurve
            143 -333 -32 -89 -6 -15 -15 -29 -17 -24 rlinecurve
            -4 -21 -33 -6 -13 hhcurveto
            -40 1 -8 -58 rlineto
            return
          </CharString>
          <CharString index="24">
            rmoveto
            -229 -100 -82 callgsubr
          </CharString>
          <CharString index="25">
            hintmask 10101000
            688 54 rmoveto
            -70 7 -24 20 -38 32 -15 16 rlinecurve
            -69 80 -72 81 -70 80 132 176 rcurveline
            30 30 46 44 26 24 76 7 rcurveline
            hintmask 10011000
            90 callgsubr
            -47 -5 -80 vhcurveto
            hintmask 10101000
            -20 -86 5 0 hvcurveto
            -5 -54 rlineto
            hintmask 01011000
            54 -11 -39 -68 -182 -224 rlineto
            0 144 -165 21 -24 vhcurveto
            17 -22 37 -57 16 -26 -59 -14 rcurveline
            -67 callsubr
            0 108 14 callgsubr
            61 -5 0 vhcurveto
            -379 715 rmoveto
            hintmask 10101000
            0 -57 -5 -80 81 callgsubr
            vhcurveto
            hintmask 01011000
            -5 -54 -58 callgsubr
            hintmask 10101000
            -431 vlineto
            -17 -7 -46 -2 -13 vhcurveto
            hintmask 01011000
            -79 -93 callsubr
            80 66 -5 0 vhcurveto
            68 callgsubr
            48 callsubr
            hintmask 10101000
            78 7 rlineto
            return
          </CharString>
          <CharString index="26">
            vvcurveto
            107 vlineto
            98 1 48 70 79 hhcurveto
            84 19 -82 -84 hvcurveto
            -139 vlineto
            -25 -5 -29 -5 -22 vhcurveto
            -67 -16 rlineto
            return
          </CharString>
          <CharString index="27">
            -61 callsubr
            277 -20 -105 callgsubr
            return
          </CharString>
          <CharString index="28">
            53 callsubr
            231 81 hintmask 1001001110000000
            hintmask 1000101110000000
            36 445 rmoveto
            hintmask 0110001110000000
            -49 callsubr
            hintmask 1001001110000000
            -41 callgsubr
            hintmask 0101001110000000
            -78 7 rlineto
            hintmask 1001001110000000
            0 -7 56 50 -81 callsubr
            hintmask 0101001110000000
            -43 callsubr
            hintmask 1001001110000000
            16 callgsubr
            hintmask 0101001110000000
            109 vlineto
            hintmask 1001001110000000
            12 callsubr
            -6 64 -39 callsubr
            hintmask 1010001110000000
            return
          </CharString>
          <CharString index="29">
            154 -6 59 -53 53 284 43 275 60 -5 40 callgsubr
            359 99 hintmask 10110110
            -66 callsubr
            -188 -88 -43 88 -200 vlineto
            -105 callsubr
            hintmask 01110110
            0 97 5 21 vhcurveto
            60 69 -6 40 hhcurveto
            hintmask 10110110
            216 129 145 213 223 -122 140 -223 -66 -57 -8 -2 -64 hvcurveto
            -34 2 -64 3 0 vvcurveto
            hintmask 10101110
            172 -373 rmoveto
            138 hlineto
            5 43 rlineto
            -143 158 hlineto
            40 5 53 2 19 vhcurveto
            hintmask 10110110
            3 25 36 2 46 hhcurveto
            167 78 -136 -167 -165 -78 -134 -167 -44 -37 2 2 -26 hvcurveto
            -1 4 -6 58 48 vvcurveto
            endchar
          </CharString>
          <CharString index="30">
            hintmask 1001001010000000
            hintmask 1000101010000000
            645 661 rmoveto
            hintmask 1000011010000000
            -26 callgsubr
            hintmask 1001001010000000
            -10 callgsubr
            -16 -39 -12 -24 vhcurveto
            -115 -234 -101 189 rlineto
            -32 59 -11 49 0 vvcurveto
            hintmask 1010001010000000
            79 20 rlineto
            hintmask 1000101010000000
            -4 49 rlineto
            hintmask 1000011010000000
            0 -122 -5 -25 vhcurveto
            -109 hlineto
            hintmask 1001001010000000
            53 callgsubr
            hintmask 0110001010000000
            0 35 -44 21 -41 vhcurveto
            155 -299 rlineto
            -120 -27 callsubr
            98 5 20 80 66 -62 callsubr
            hintmask 1001001010000000
            -90 -87 callgsubr
            hintmask 0101001010000000
            106 vlineto
            hintmask 1000101010000000
            140 272 rlineto
            27 52 36 47 0 vvcurveto
            return
          </CharString>
          <CharString index="31">
            9 127 -58 6 -3 -19 -2 -18 -1 -3 rlinecurve
            -7 -21 -8 -16 -7 -14 rrcurveto
            -3 -24 -30 -3 -5 hhcurveto
            -125 hlineto
            17 32 24 44 9 14 122 185 rcurveline
            86 109 -7 58 rlineto
            -242 hlineto
            -20 -75 3 0 hvcurveto
            return
          </CharString>
          <CharString index="32">
            -73 callsubr
            -7 136 rlineto
            return
          </CharString>
          <CharString index="33">
            37 -12 rlineto
            0 47 80 55 vvcurveto
            42 -19 24 -33 -24 -26 -19 -39 vhcurveto
            endchar
          </CharString>
          <CharString index="34">
            10 -13 9 -14 -56 callsubr
            return
          </CharString>
          <CharString index="35">
            -47 -10 47 598 47 hstemhm
            40 91 -69 87 222 87 -69 91 hintmask 11100100
            hintmask 11010100
            62 521 rmoveto
            -88 54 -49 65 -37 vhcurveto
            hintmask 11100100
            -63 -36 -78 -62 -85 vvcurveto
            -119 104 -55 116 118 102 57 115 94 -69 52 -75 40 vhcurveto
            hintmask 11101000
            54 33 68 59 79 vvcurveto
            105 -96 58 -102 vhcurveto
            hintmask 11010100
            -104 -94 -59 -102 hvcurveto
            hintmask 11100100
            69 -357 rmoveto
            71 58 54 44 31 vhcurveto
            3 -2 3 -1 3 -1 rrcurveto
            76 -42 71 -39 -75 vvcurveto
            -73 -59 -50 -70 -74 -55 50 77 vhcurveto
            hintmask 11011000
            240 355 rmoveto
            -69 -48 -51 -34 -28 vhcurveto
            -1 1 rlineto
            -73 40 -66 34 77 vvcurveto
            61 53 51 58 63 48 -50 -66 vhcurveto
            endchar
          </CharString>
          <CharString index="36">
            -57 -10 47 598 47 hstemhm
            38 90 -68 87 218 87 -70 91 hintmask 11100100
            hintmask 11010100
            60 521 rmoveto
            -89 53 -48 64 -37 vhcurveto
            hintmask 11100100
            -62 -36 -77 -62 -85 vvcurveto
            -119 102 -55 115 117 101 57 115 94 -69 52 -73 40 vhcurveto
            hintmask 11101000
            53 33 68 59 79 vvcurveto
            105 -95 58 -101 vhcurveto
            hintmask 11010100
            -103 -93 -59 -102 hvcurveto
            hintmask 11100100
            68 -357 rmoveto
            71 58 54 43 30 vhcurveto
            8 -3 rlineto
            75 -42 70 -39 -75 vvcurveto
            -73 -58 -50 -69 -73 -54 50 77 vhcurveto
            hintmask 11011000
            237 355 rmoveto
            -68 -46 -52 -34 -28 vhcurveto
            -1 0 1 0 hvcurveto
            -72 40 -65 34 77 vvcurveto
            61 52 51 57 62 47 -50 -66 vhcurveto
            endchar
          </CharString>
          <CharString index="37">
            55 callgsubr
            418 vlineto
            47 4 75 3 31 -32 callsubr
            return
          </CharString>
          <CharString index="38">
            rmoveto
            -180 -150 -64 callsubr
          </CharString>
          <CharString index="39">
            -33 0 57 -40 -21 648 -6 callgsubr
            248 47 hintmask 10010100
            hintmask 10001100
            302 -28 callsubr
            hintmask 10010100
            -92 callgsubr
            hintmask 10001100
            17 callsubr
            hintmask 01100100
            74 callgsubr
            -431 -27 callsubr
            98 5 20 vhcurveto
            211 hlineto
            hintmask 10010110
            69 callsubr
            15 151 rlineto
            hintmask 01010110
            -55 5 -2 -16 -9 -36 -4 -15 rlinecurve
            -1 -7 -10 -16 -10 -14 rrcurveto
            -4 -22 -34 -5 -31 hhcurveto
            hintmask 10010110
            -26 callsubr
            return
          </CharString>
          <CharString index="40">
            5 -50 rlineto
            return
          </CharString>
          <CharString index="41">
            44 656 rmoveto
            -58 callgsubr
            return
          </CharString>
          <CharString index="42">
            0 57 -41 -21 return
          </CharString>
          <CharString index="43">
            33 -41 73 60 rlineto
            15 11 106 76 callgsubr
          </CharString>
          <CharString index="44">
            -82 2 -6 -60 79 -6 rlineto
            3 -18 6 -49 -16 vvcurveto
            -395 vlineto
            -262 367 rlineto
            -15 22 -82 133 0 vvcurveto
            return
          </CharString>
          <CharString index="45">
            44 callsubr
            rlineto
            return
          </CharString>
          <CharString index="46">
            25 -38 callgsubr
            372 65 -49 -22 callsubr
            return
          </CharString>
          <CharString index="47">
            -122 -19 rlineto
            15 -30 -35 9 -40 hhcurveto
            -116 -77 -72 -109 -72 34 -56 56 -30 hvcurveto
            return
          </CharString>
          <CharString index="48">
            76 -16 rlineto
            -86 callgsubr
            return
          </CharString>
          <CharString index="49">
            -236 444 53 -47 43 219 45 hstemhm
            26 75 -56 46 110 71 hintmask 01101100
            214 450 rmoveto
            69 31 -3 0 hvcurveto
            4 42 -40 39 callgsubr
            78 vlineto
            79 -39 39 -79 -32 -44 -6 -10 -37 vhcurveto
            9 -95 42 2 -1 28 5 25 rlineto
            7 14 22 4 18 hhcurveto
            34 17 -21 -47 hvcurveto
            -19 vlineto
            hintmask 10110100
            -93 -15 rlineto
            -55 -9 -27 -28 -46 vvcurveto
            -51 35 -32 56 39 34 19 33 18 vhcurveto
            -7 93 rmoveto
            -41 vlineto
            -30 -6 -25 -21 -30 hhcurveto
            -26 -13 14 28 22 12 12 24 5 hvcurveto
            endchar
          </CharString>
          <CharString index="50">
            -2 callsubr
            hintmask 1010101100000000
            -92 callgsubr
            hintmask 1010011100000000
            17 callsubr
            hintmask 0111001100000000
            74 callgsubr
            -431 -27 callsubr
            98 5 20 vhcurveto
            211 hlineto
            hintmask 1010101110000000
            69 callsubr
            15 151 rlineto
            hintmask 0110101110000000
            -55 5 -2 -16 -9 -36 -4 -15 rlinecurve
            -1 -7 -10 -16 -10 -14 rrcurveto
            -4 -22 -34 -5 -31 hhcurveto
            hintmask 1010101110000000
            56 callsubr
          </CharString>
          <CharString index="51">
            1 -7 4 -15 5 -23 2 -16 58 5 rcurveline
            return
          </CharString>
          <CharString index="52">
            6 callsubr
            36 -21 rlineto
            0 26 54 27 vhcurveto
            return
          </CharString>
          <CharString index="53">
            50 callgsubr
            122 -99 rmoveto
            55 104 rlineto
            -9 27 31 -6 35 hhcurveto
            152 78 104 152 93 -28 75 -56 44 hvcurveto
            64 120 -40 20 -62 -117 rlineto
            14 -30 -36 8 -42 hhcurveto
            -152 -78 -104 -153 -99 33 -78 65 -43 hvcurveto
            -55 -105 rlineto
            51 325 rmoveto
            103 33 97 103 32 25 -9 -16 19 vhcurveto
            -173 -329 rlineto
            -28 38 -11 57 59 vvcurveto
            272 hmoveto
            -103 -33 -96 -103 -25 -21 5 10 -17 vhcurveto
            170 321 rlineto
            20 -37 9 -49 -51 vvcurveto
            return
          </CharString>
          <CharString index="54">
            89 callsubr
            -55 5 -2 -16 -10 -36 -3 -15 rlinecurve
            return
          </CharString>
          <CharString index="55">
            42 5 50 2 14 vhcurveto
            return
          </CharString>
          <CharString index="56">
            35 callgsubr
            rlineto
            return
          </CharString>
          <CharString index="57">
            21 0 57 -40 -21 342 56 255 56 94 callsubr
            return
          </CharString>
          <CharString index="58">
            -59 callsubr
            -221 vlineto
            -2 -23 -8 -48 0 vvcurveto
            38 callsubr
            return
          </CharString>
          <CharString index="59">
            -58 callgsubr
            -431 vlineto
            return
          </CharString>
          <CharString index="60">
            -73 -20 4 -49 rlineto
            0 112 5 31 vhcurveto
            101 hlineto
            return
          </CharString>
          <CharString index="61">
            rmoveto
            71 35 -43 -87 -87 -35 -43 -71 -71 -35 43 87 86 36 44 70 hvcurveto
            return
          </CharString>
          <CharString index="62">
            rmoveto
            -52 -45 -8 -21 -61 hvcurveto
            13 -145 55 3 -2 45 rlineto
            7 3 15 7 28 vhcurveto
            16 25 20 6 34 hhcurveto
            69 39 -44 -79 -86 -63 -49 -130 -16 hvcurveto
            14 -48 rlineto
            0 30 3 39 vhcurveto
            hintmask 11101000
            82 55 -49 -74 -98 -122 -90 -185 -30 hvcurveto
            18 -53 rlineto
            228 25 156 112 136 vvcurveto
            82 -53 59 -94 26 vhcurveto
            hintmask 11110000
            76 32 43 59 73 vvcurveto
            106 -70 57 -129 vhcurveto
            endchar
          </CharString>
          <CharString index="63">
            -41 40 hhcurveto
            40 43 98 0 hvcurveto
            endchar
          </CharString>
          <CharString index="64">
            -67 callsubr
            7 callsubr
            7 59 rlineto
            return
          </CharString>
          <CharString index="65">
            -337 557 rmoveto
            94 -271 -182 -4 rlineto
            return
          </CharString>
          <CharString index="66">
            rmoveto
            -43 -36 -6 -16 -42 hvcurveto
            6 -99 43 3 -1 27 rlineto
            5 2 10 4 11 vhcurveto
            11 19 19 5 20 hhcurveto
            38 26 -23 -39 -54 -31 -39 -159 -146 hvcurveto
            9 -54 rlineto
            hintmask 11101000
            -38 callsubr
            hintmask 11110000
            146 126 37 47 68 vvcurveto
            64 -50 38 -85 vhcurveto
            endchar
          </CharString>
          <CharString index="67">
            116 77 72 109 50 -16 43 -30 31 hvcurveto
            -233 -447 rmoveto
            19 -5 23 -4 27 -3 rrcurveto
            return
          </CharString>
          <CharString index="68">
            -19 18 rlineto
            -36 hlineto
            -20 -72 -20 callsubr
            return
          </CharString>
          <CharString index="69">
            189 hlineto
            13 57 -2 0 hvcurveto
            16 12 5 105 -42 3 -4 -25 rlineto
            -4 -5 -15 -3 -7 vhcurveto
            -2 -19 -26 -4 -11 hhcurveto
            -92 hlineto
            return
          </CharString>
          <CharString index="70">
            14 876 rmoveto
            46 -11 rlineto
            0 7 -38 -12 vvcurveto
            -272 vlineto
            -12 -5 -32 -1 -6 vhcurveto
            -44 26 callgsubr
            36 80 callsubr
            -44 4 rlineto
            2 -5 37 29 vvcurveto
            return
          </CharString>
          <CharString index="71">
            vvcurveto
            -60 43 -29 60 37 32 14 8 17 vhcurveto
            -14 33 rlineto
            return
          </CharString>
          <CharString index="72">
            0 -57 -5 -80 vhcurveto
            return
          </CharString>
          <CharString index="73">
            -45 -11 57 298 59 hstem
            45 94 263 95 vstem
            289 403 rmoveto
            -33 -47 -16 0 hvcurveto
            6 -48 rlineto
            0 45 5 20 81 41 -63 -81 -80 -46 -74 -80 -96 -41 104 96 171 81 203 262 76 vhcurveto
            -12 51 rlineto
            -288 -54 -137 -236 -211 vvcurveto
            -150 81 -107 150 122 99 89 122 129 -79 74 -129 vhcurveto
            endchar
          </CharString>
          <CharString index="74">
            97 0 59 -43 -21 237 52 431 -20 return
          </CharString>
          <CharString index="75">
            22 callsubr
            -72 -20 callsubr
            return
          </CharString>
          <CharString index="76">
            -23 -14 -24 -4 -33 -11 3 -42 rcurveline
            77 return
          </CharString>
          <CharString index="77">
            -235 644 -10 callsubr
            hstemhm
            126 91 hintmask 01010000
            302 651 rmoveto
            hintmask 00110000
            -4 59 rlineto
            -35 callsubr
            hintmask 01010000
            -92 callgsubr
            hintmask 00110000
            17 callsubr
            hintmask 10010000
            74 callgsubr
            -557 vlineto
            -20 -80 -169 0 vhcurveto
            34 -22 rlineto
            47 56 90 107 27 vvcurveto
            548 vlineto
            -52 callsubr
            return
          </CharString>
          <CharString index="78">
            -62 -235 57 198 -21 142 51 260 51 -5 -20 return
          </CharString>
          <CharString index="79">
            710 -2 callsubr
            return
          </CharString>
          <CharString index="80">
            vlineto
            -105 callsubr
            0 return
          </CharString>
          <CharString index="81">
            -118 hlineto
            -2 15 -5 54 41 vvcurveto
            7 callgsubr
            return
          </CharString>
          <CharString index="82">
            279 104 rmoveto
            -99 245 -8 19 -10 36 -7 30 rlinecurve
            72 7 rlineto
            return
          </CharString>
          <CharString index="83">
            -33 32 -74 -61 -59 -43 -25 18 -27 19 -7 6 rlinecurve
            endchar
          </CharString>
          <CharString index="84">
            -24 callgsubr
            4 -20 hstemhm
            return
          </CharString>
          <CharString index="85">
            49 -18 18 4 -20 return
          </CharString>
          <CharString index="86">
            44 callgsubr
            -250 62 rmoveto
            44 callgsubr
            endchar
          </CharString>
          <CharString index="87">
            4 0 hvcurveto
            return
          </CharString>
          <CharString index="88">
            rmoveto
            23 28 5 9 21 hvcurveto
            -7 49 rlineto
            -3 -21 -13 -1 -22 hhcurveto
            -77 -49 65 77 82 40 74 78 93 41 -107 -97 -171 -67 -201 -259 -84 hvcurveto
            14 -52 rlineto
            288 62 122 230 216 vvcurveto
            152 -81 109 -149 -122 -95 -89 -124 -125 89 -76 125 vhcurveto
            endchar
          </CharString>
          <CharString index="89">
            -8 17 29 -10 37 hhcurveto
            59 48 35 54 54 -42 32 -59 1 hvcurveto
            return
          </CharString>
          <CharString index="90">
            -65 callsubr
            434 65 return
          </CharString>
          <CharString index="91">
            -36 -18 -24 -36 return
          </CharString>
          <CharString index="92">
            20 94 -4 0 hvcurveto
            return
          </CharString>
          <CharString index="93">
            rmoveto
            -51 4 rlineto
            -1 3 -5 37 28 vvcurveto
            157 vlineto
            30 5 113 0 vhcurveto
            -49 7 rlineto
            0 -23 -29 -7 -6 vhcurveto
            -12 -10 -76 -59 0 vvcurveto
            20 -33 73 35 rlineto
            -223 vlineto
            -12 -5 -35 -3 vvcurveto
            -62 -8 rlineto
            hintmask 01100000
            3 -43 rlineto
            0 60 3 21 vhcurveto
            hintmask 10100000
            62 43 -3 0 hvcurveto
            endchar
          </CharString>
          <CharString index="94">
            rmoveto
            -68 hlineto
            -19 -18 -17 -329 37 -21 rlineto
            10 42 30 3 24 hhcurveto
            94 52 -46 -85 -129 -129 -66 -161 -23 hvcurveto
            18 -53 rlineto
            209 22 158 94 165 vvcurveto
            124 -88 64 -135 -31 -28 -4 -5 -23 vhcurveto
            3 90 9 127 0 vvcurveto
            64 hlineto
            30 178 23 0 hvcurveto
            return
          </CharString>
          <CharString index="95">
            -62 callgsubr
            hvcurveto
            7 59 return
          </CharString>
          <CharString index="96">
            -36 18 -23 36 36 18 23 36 -16 callgsubr
            vhcurveto
            -236 hmoveto
            -16 callsubr
            -36 18 -23 36 return
          </CharString>
          <CharString index="97">
            61 -58 57 6 -20 return
          </CharString>
          <CharString index="98">
            rmoveto
            11 callsubr
            return
          </CharString>
          <CharString index="99">
            56 50 vvcurveto
            return
          </CharString>
          <CharString index="100">
            27 -43 82 85 callgsubr
            173 67 rmoveto
            -210 -136 27 -43 81 85 callgsubr
            endchar
          </CharString>
          <CharString index="101">
            -89 -10 65 182 58 156 52 return
          </CharString>
          <CharString index="102">
            rmoveto
            19 15 3 4 11 hvcurveto
            -4 38 rlineto
            -1 -5 -12 -1 -11 hhcurveto
            -37 -25 37 44 43 18 42 44 48 21 -56 -55 -103 -39 -125 -158 -45 hvcurveto
            11 -38 rlineto
            185 35 83 146 130 vvcurveto
            92 -53 66 -98 -80 -64 -57 -75 -78 52 -46 79 vhcurveto
            endchar
          </CharString>
          <CharString index="103">
            vlineto
            -40 -76 -195 0 vhcurveto
            36 -21 rlineto
            0 121 185 40 vvcurveto
            return
          </CharString>
          <CharString index="104">
            -49 -41 -23 -25 -14 vvcurveto
            -35 15 -23 36 -15 vhcurveto
            return
          </CharString>
          <CharString index="105">
            rmoveto
            -35 callsubr
            return
          </CharString>
          <CharString index="106">
            hlineto
            90 5 61 90 vhcurveto
            7 12 -1 8 hhcurveto
            6 -21 6 -22 -9 vvcurveto
            -36 vlineto
            53 -3 11 135 rlineto
            0 -62 10 -41 vhcurveto
            endchar
          </CharString>
          <CharString index="107">
            93 callgsubr
            18 -35 -47 -42 -19 -48 -48 -49 -23 54 55 105 47 132 160 48 vhcurveto
            -9 36 rlineto
            -200 -39 -79 -156 -123 vvcurveto
            -91 53 -69 100 89 58 64 74 82 -48 43 -82 vhcurveto
            endchar
          </CharString>
          <CharString index="108">
            194 -9 callgsubr
            hstemhm
            130 67 return
          </CharString>
          <CharString index="109">
            -222 442 45 225 45 hstem
            24 81 135 81 vstem
            321 599 rmoveto
            99 -52 59 -97 -97 -51 -59 -99 -97 51 -60 97 97 52 60 97 vhcurveto
            -81 hmoveto
            -70 -18 -42 -50 -49 -18 42 70 70 18 43 49 50 18 -43 -70 vhcurveto
            endchar
          </CharString>
          <CharString index="110">
            -40 -85 100 callsubr
            return
          </CharString>
          <CharString index="111">
            -127 1 -19 vhcurveto
            -1 -94 58 -3 13 243 rlineto
            return
          </CharString>
          <CharString index="112">
            -8 callgsubr
            180 52 callsubr
            return
          </CharString>
          <CharString index="113">
            -40 -42 -101 0 hvcurveto
            return
          </CharString>
          <CharString index="114">
            0 82 -54 callgsubr
            return
          </CharString>
          <CharString index="115">
            42 27 35 42 18 vhcurveto
            -7 24 rlineto
            -84 -18 -46 -79 -70 vvcurveto
            -44 21 -40 44 37 27 32 37 36 -25 27 -36 vhcurveto
            return
          </CharString>
          <CharString index="116">
            -49 49 -18 18 return
          </CharString>
          <CharString index="117">
            rmoveto
            -7 -114 43 -2 4 30 2 7 4 8 4 9 rlinecurve
            1 13 24 2 8 hhcurveto
            102 hlineto
            -6 -30 -18 -53 -5 -10 -141 -296 rcurveline
            67 -22 193 442 -11 35 rlineto
            -187 hlineto
            -15 -62 5 0 hvcurveto
            endchar
          </CharString>
          <CharString index="118">
            0 -26 -51 -27 vhcurveto
            return
          </CharString>
          <CharString index="119">
            138 -31 89 -138 -76 -52 -45 -46 -24 vhcurveto
            return
          </CharString>
          <CharString index="120">
            hlineto
            -15 callsubr
            return
          </CharString>
          <CharString index="121">
            0 vvcurveto
            endchar
          </CharString>
          <CharString index="122">
            vlineto
            -31 callsubr
            -303 hlineto
            return
          </CharString>
          <CharString index="123">
            -34 23 -14 10 -4 vhcurveto
            return
          </CharString>
          <CharString index="124">
            77 -12 rlineto
            return
          </CharString>
          <CharString index="125">
            rmoveto
            -113 45 -98 115 116 44 98 113 114 -44 98 -116 -115 -45 -98 -114 vhcurveto
            236 hmoveto
            -76 -12 -89 -64 -63 -12 89 76 77 12 89 63 64 12 -89 -77 vhcurveto
            endchar
          </CharString>
          <CharString index="126">
            40 74 -44 callsubr
          </CharString>
          <CharString index="127">
            -5 -52 73 -12 -7 -32 -13 -46 -7 -19 rlinecurve
            return
          </CharString>
          <CharString index="128">
            -28 -235 68 -57 57 604 56 6 -20 return
          </CharString>
          <CharString index="129">
            vhcurveto
            17 callgsubr
            return
          </CharString>
          <CharString index="130">
            46 -10 rlineto
            0 7 -38 -13 vvcurveto
            -113 vlineto
            -1 -13 -5 -36 0 vvcurveto
            91 callsubr
            3 42 -43 39 callgsubr
            return
          </CharString>
          <CharString index="131">
            rmoveto
            5 53 rlineto
            -322 -53 hlineto
            endchar
          </CharString>
          <CharString index="132">
            hlineto
            -110 29 -56 95 50 36 27 25 32 vhcurveto
            return
          </CharString>
          <CharString index="133">
            71 callsubr
            -176 hmoveto
            -102 callsubr
            return
          </CharString>
          <CharString index="134">
            rmoveto
            -51 -26 -29 -44 -43 26 -29 51 51 25 29 43 44 -25 29 -51 hvcurveto
            -32 vmoveto
            26 10 -19 -22 -21 -10 -19 -26 -25 -10 19 21 22 10 19 25 hvcurveto
            return
          </CharString>
          <CharString index="135">
            -46 4 rlineto
            3 -5 23 25 vvcurveto
            17 58 54 vlineto
            -58 -3 rlineto
            90 vlineto
            -66 -24 rlineto
            -71 -107 vlineto
            117 162 rlineto
            10 14 70 70 14 callsubr
          </CharString>
          <CharString index="136">
            -86 callgsubr
            -136 vlineto
            19 -53 -30 5 -42 hhcurveto
            -130 -80 -98 -158 111 callgsubr
            53 71 44 46 20 hvcurveto
            14 -80 rlineto
            return
          </CharString>
          <CharString index="137">
            233 0 103 -82 -21 437 56 6 -20 return
          </CharString>
          <CharString index="138">
            -86 -453 rmoveto
            19 -5 23 -4 27 -3 130 -17 rcurveline
            -23 callgsubr
            19 8 16 35 43 vhcurveto
            return
          </CharString>
          <CharString index="139">
            -137 150 81 87 18 19 48 30 33 18 rlinecurve
            75 8 -3 58 rlineto
            return
          </CharString>
          <CharString index="140">
            0 -39 -5 -76 -20 -67 3 0 vhcurveto
            return
          </CharString>
          <CharString index="141">
            -15 58 228 62 329 58 return
          </CharString>
          <CharString index="142">
            -47 -26 27 47 43 18 20 45 9 hvcurveto
            343 250 rmoveto
            66 38 -47 -81 hvcurveto
            -2 vlineto
            -222 -31 rlineto
            102 7 43 59 68 hhcurveto
            return
          </CharString>
          <CharString index="143">
            -72 -44 73 119 124 47 72 81 42 35 -11 -25 38 hvcurveto
            endchar
          </CharString>
          <CharString index="144">
            0 21 2 20 45 27 -25 -44 -60 -70 -50 -106 -15 vhcurveto
            12 -39 rlineto
            return
          </CharString>
          <CharString index="145">
            -76 47 callsubr
            return
          </CharString>
          <CharString index="146">
            -1 rlineto
            -20 -46 5 0 hvcurveto
            return
          </CharString>
          <CharString index="147">
            -39 callsubr
            hintmask 1000011110000000
            -5 -53 rlineto
            hintmask 1000101110000000
            76 -16 rlineto
            hintmask 0110001110000000
            -86 callgsubr
            return
          </CharString>
          <CharString index="148">
            58 16 63 59 59 16 -63 -57 -58 -16 -63 -59 return
          </CharString>
          <CharString index="149">
            142 -150 51 -56 -57 -11 5 -50 102 2 rlineto
            -12 callsubr
            -63 6 -33 25 -46 32 -11 12 rlinecurve
            return
          </CharString>
          <CharString index="150">
            -48 callgsubr
            endchar
          </CharString>
          <CharString index="151">
            -5 0 vhcurveto
            7 59 return
          </CharString>
          <CharString index="152">
            rmoveto
            -49 hlineto
            -12 -11 rlineto
            0 -10 -155 -3 -47 vhcurveto
            24 -22 rlineto
            6 25 24 1 15 hhcurveto
            54 29 -29 -49 -69 -64 return
          </CharString>
          <CharString index="153">
            16 callsubr
            51 callgsubr
            return
          </CharString>
          <CharString index="154">
            -91 callsubr
            vhcurveto
            return
          </CharString>
          <CharString index="155">
            371 vlineto
            -52 callsubr
            return
          </CharString>
          <CharString index="156">
            474 440 rmoveto
            58 vlineto
            return
          </CharString>
          <CharString index="157">
            -27 -10 57 399 57 return
          </CharString>
          <CharString index="158">
            -44 54 callgsubr
            return
          </CharString>
          <CharString index="159">
            49 21 54 -30 47 return
          </CharString>
          <CharString index="160">
            -20 59 callgsubr
            return
          </CharString>
          <CharString index="161">
            44 -24 -45 21 -69 hhcurveto
            -60 -61 -8 -16 -60 hvcurveto
            265 -253 rmoveto
            -11 vlineto
            -91 -58 -70 -75 vhcurveto
            return
          </CharString>
          <CharString index="162">
            17 callsubr
            2 return
          </CharString>
          <CharString index="163">
            -26 callsubr
            endchar
          </CharString>
          <CharString index="164">
            84 callgsubr
            74 -41 40 hhcurveto
            return
          </CharString>
          <CharString index="165">
            3 -38 rlineto
            0 36 3 22 61 37 -3 0 vhcurveto
            3 42 -44 117 callgsubr
            return
          </CharString>
          <CharString index="166">
            76 vlineto
            -16 36 37 -9 34 hhcurveto
            133 97 112 154 157 -75 90 -130 return
          </CharString>
          <CharString index="167">
            57 -41 -21 434 65 -52 61 -58 49 4 -20 return
          </CharString>
          <CharString index="168">
            -150 -218 -218 return
          </CharString>
          <CharString index="169">
            81 callgsubr
            hvcurveto
            return
          </CharString>
          <CharString index="170">
            63 -4 105 -11 0 vvcurveto
            18 19 -10 60 -6 6 rlineto
            0 -145 -18 -25 -1 vhcurveto
            return
          </CharString>
          <CharString index="171">
            -12 rlineto
            hintmask 01001100
            74 callgsubr
            -254 vlineto
            -17 -7 -46 -2 -13 vhcurveto
            return
          </CharString>
          <CharString index="172">
            58 callgsubr
            hstem
            42 107 442 107 vstem
            698 352 rmoveto
            return
          </CharString>
          <CharString index="173">
            -7 0 68 441 -20 hstem
            52 455 vstem
            52 66 rmoveto
            118 callgsubr
            return
          </CharString>
          <CharString index="174">
            -35 -40 hvcurveto
            -88 vlineto
            -10 -2 -22 -2 -18 vhcurveto
            return
          </CharString>
          <CharString index="175">
            45 21 26 35 41 vvcurveto
            68 -46 36 -87 vhcurveto
            return
          </CharString>
          <CharString index="176">
            -15 callsubr
            19 18 return
          </CharString>
          <CharString index="177">
            -21 713 54 hstemhm
            36 59 198 94 -67 95 hintmask 11101000
            hintmask 11110000
            188 return
          </CharString>
          <CharString index="178">
            rmoveto
            -102 callsubr
            return
          </CharString>
          <CharString index="179">
            43 -43 46 -28 -21 123 46 return
          </CharString>
          <CharString index="180">
            -107 0 52 -34 -21 445 52 return
          </CharString>
          <CharString index="181">
            -115 -61 -68 -105 hvcurveto
            return
          </CharString>
          <CharString index="182">
            710 rmoveto
            0 return
          </CharString>
          <CharString index="183">
            19 686 rmoveto
            8 -98 31 callgsubr
            return
          </CharString>
          <CharString index="184">
            -153 212 rmoveto
            -96 -47 -57 -80 vhcurveto
            return
          </CharString>
          <CharString index="185">
            308 -28 callsubr
            return
          </CharString>
          <CharString index="186" raw="1">
            6340b463 1b0b  
          </CharString>
          <CharString index="187">
            119 callsubr
            42 return
          </CharString>
          <CharString index="188">
            68 -27 68 hstemhm
            return
          </CharString>
          <CharString index="189">
            131 -65 callsubr
            652 57 6 40 callgsubr
            return
          </CharString>
          <CharString index="190">
            88 19 43 83 74 vvcurveto
            47 -16 42 -47 -39 -23 -30 -39 vhcurveto
            return
          </CharString>
          <CharString index="191">
            -41 -159 -152 hvcurveto
            9 -54 rlineto
            return
          </CharString>
          <CharString index="192">
            -20 73 callgsubr
            return
          </CharString>
          <CharString index="193">
            rmoveto
            -434 -738 51 -32 return
          </CharString>
          <CharString index="194">
            -21 402 67 208 80 return
          </CharString>
          <CharString index="195">
            -20 113 129 hstemhm
            return
          </CharString>
          <CharString index="196">
            19 18 15 151 return
          </CharString>
          <CharString index="197">
            -16 -67 callsubr
            return
          </CharString>
          <CharString index="198">
            -44 26 callgsubr
            37 -3 0 vhcurveto
            return
          </CharString>
          <CharString index="199">
            -40 -23 -46 -37 -50 vvcurveto
            -74 70 -32 74 75 68 33 72 return
          </CharString>
          <CharString index="200">
            0 98 5 20 return
          </CharString>
          <CharString index="201">
            5 -20 25 -20 return
          </CharString>
          <CharString index="202">
            134 112 76 135 142 -85 71 -138 return
          </CharString>
          <CharString index="203">
            -65 callsubr
            696 -24 callgsubr
            return
          </CharString>
          <CharString index="204">
            59 298 57 hstem
            23 97 252 98 vstem
            237 return
          </CharString>
          <CharString index="205">
            48 172 43 hstem
            34 81 139 80 vstem
            204 return
          </CharString>
          <CharString index="206">
            90 callsubr
            0 72 5 30 return
          </CharString>
          <CharString index="207">
            41 -40 hhcurveto
            6 callsubr
            return
          </CharString>
          <CharString index="208">
            46 -10 rlineto
            0 6 -38 -13 vvcurveto
            return
          </CharString>
          <CharString index="209">
            -20 287 -20 hstemhm
            return
          </CharString>
          <CharString index="210">
            vlineto
            5 54 rlineto
            return
          </CharString>
          <CharString index="211">
            62 -36 -21 429 65 -49 -22 callsubr
            return
          </CharString>
          <CharString index="212">
            vlineto
            30 5 74 0 vhcurveto
            -12 11 -47 -1 rlineto
            -20 return
          </CharString>
          <CharString index="213">
            70 callgsubr
            201 87 -41 85 return
          </CharString>
          <CharString index="214">
            45 319 46 hstem
            27 84 143 84 vstem
            27 return
          </CharString>
          <CharString index="215">
            rmoveto
            497 hlineto
            5 75 rlineto
            -504 hlineto
            endchar
          </CharString>
          <CharString index="216">
            4 53 callsubr
            return
          </CharString>
          <CharString index="217">
            262 -20 hstem
            40 94 return
          </CharString>
          <CharString index="218">
            rmoveto
            -16 callsubr
            hvcurveto
            return
          </CharString>
          <CharString index="219">
            45 hstemhm
            29 46 115 79 -66 84 hintmask 11010000
            return
          </CharString>
          <CharString index="220">
            -288 760 -20 hstem
            107 65 vstem
            172 return
          </CharString>
          <CharString index="221">
            0 vhcurveto
            22 -18 88 10 6 6 rlineto
            0 -33 return
          </CharString>
          <CharString index="222">
            -110 -15 hvcurveto
            16 -39 rlineto
            141 20 94 return
          </CharString>
          <CharString index="223">
            195 3 8 15 33 12 25 rlinecurve
            endchar
          </CharString>
          <CharString index="224">
            -9 callsubr
            -40 return
          </CharString>
          <CharString index="225">
            0 -5 38 30 vvcurveto
            return
          </CharString>
          <CharString index="226">
            -3 0 vhcurveto
            4 return
          </CharString>
          <CharString index="227">
            -64 hlineto
            hintmask 01110000
            -17 -7 -45 -2 -14 vhcurveto
            return
          </CharString>
          <CharString index="228">
            -7 133 hstem
            40 122 76 122 return
          </CharString>
          <CharString index="229">
            -20 35 -20 277 -20 hstemhm
            227 50 return
          </CharString>
          <CharString index="230">
            5 callgsubr
            10 -13 9 return
          </CharString>
          <CharString index="231">
            rmoveto
            -42 -28 -34 -43 -18 vhcurveto
            10 -32 rlineto
            return
          </CharString>
          <CharString index="232">
            47 hstem
            21 82 131 82 vstem
            152 return
          </CharString>
          <CharString index="233">
            0 vvcurveto
            -5 -54 return
          </CharString>
        <CharString name=".notdef">
          -343 endchar
        </CharString>
        <CharString name="A">
          -96 callsubr
          endchar
        </CharString>
        <CharString name="AE">
          -96 callgsubr
          endchar
        </CharString>
        <CharString name="AEacute">
          -96 callgsubr
          192 596 -83 callsubr
        </CharString>
        <CharString name="Aacute">
          -96 callsubr
          221 616 -83 callsubr
        </CharString>
        <CharString name="Abreve">
          -33 callsubr
          63 56 hstemhm
          176 94 callgsubr
          hintmask 10111110
          -75 callgsubr
          hintmask 01111110
          -47 callgsubr
          hintmask 10111110
          -79 callgsubr
          hintmask 01111110
          -47 callsubr
          hintmask 10111110
          -42 callsubr
          168 616 rmoveto
          -81 callgsubr
        </CharString>
        <CharString name="Acircumflex">
          -96 callsubr
          102 611 -55 callgsubr
        </CharString>
        <CharString name="Adieresis">
          -33 callsubr
          70 119 hstemhm
          160 29 callgsubr
          hintmask 10111110
          -75 callgsubr
          hintmask 01111110
          -47 callgsubr
          hintmask 10111110
          -79 callgsubr
          hintmask 01111110
          -47 callsubr
          hintmask 10111110
          -42 callsubr
          220 602 rmoveto
          -98 callsubr
        </CharString>
        <CharString name="Agrave">
          -96 callsubr
          -48 543 rmoveto
          -20 callgsubr
        </CharString>
        <CharString name="Amacron">
          -33 callsubr
          76 53 hstemhm
          10 650 hintmask 10111100
          -75 callgsubr
          hintmask 01111100
          -47 callgsubr
          hintmask 10111100
          -79 callgsubr
          hintmask 01111100
          -47 callsubr
          hintmask 10111100
          -42 callsubr
          258 489 24 callsubr
        </CharString>
        <CharString name="Aogonek">
          97 -197 42 155 59 -43 -21 237 52 431 -20 hstemhm
          346 64 hintmask 11011100
          -75 callgsubr
          hintmask 10111100
          -47 callgsubr
          hintmask 11011100
          86 hlineto
          5 54 -70 10 10 63 32 105 rlineto
          220 hlineto
          21 -60 rlineto
          8 -30 5 -25 -21 vvcurveto
          -35 -12 -26 -25 -22 vhcurveto
          -59 -51 -24 -26 51 callsubr
          42 36 52 64 8 hvcurveto
          145 hlineto
          -42 callsubr
          endchar
        </CharString>
        <CharString name="Aring">
          -33 callsubr
          50 38 95 38 hstemhm
          242 49 83 47 hintmask 10110111
          -75 callgsubr
          hintmask 01110111
          -47 callgsubr
          hintmask 10110111
          -79 callgsubr
          hintmask 01110111
          -47 callsubr
          hintmask 10111111
          -323 916 rmoveto
          -60 -30 -34 -52 -51 30 -34 60 60 29 34 51 52 -29 34 -60 hvcurveto
          -14 -359 rmoveto
          94 -271 -182 -4 rlineto
          102 596 rmoveto
          31 11 -22 -26 -25 -11 -22 -31 -29 -12 22 25 26 12 22 29 hvcurveto
          endchar
        </CharString>
        <CharString name="Aringacute">
          -33 callsubr
          34 32 81 32 hstemhm
          250 42 71 40 hintmask 10101111
          660 54 rmoveto
          -62 10 -39 85 rlineto
          hintmask 01111111
          -206 566 -58 -10 -179 -545 -47 callgsubr
          hintmask 10101111
          -79 callgsubr
          hintmask 01101111
          -47 callsubr
          hintmask 10101111
          -42 callsubr
          97 592 27 callsubr
          86 155 rmoveto
          -206 -90 18 -43 79 33 rlineto
          17 6 119 29 14 callsubr
        </CharString>
        <CharString name="Atilde">
          -33 callsubr
          68 81 callsubr
          10 650 hintmask 10111010
          -75 callgsubr
          hintmask 01111010
          -47 callgsubr
          hintmask 10111010
          -79 callgsubr
          hintmask 01111010
          -47 callsubr
          hintmask 10111010
          -42 callsubr
          234 600 rmoveto
          0 -26 -51 -27 vhcurveto
          3 callsubr
          hintmask 10110110
          84 callgsubr
          84 -44 callsubr
        </CharString>
        <CharString name="B">
          31 -5 58 284 57 267 54 -5 40 callgsubr
          55 106 47 93 -70 101 hintmask 11101001
          hintmask 11101010
          332 715 rmoveto
          -61 -54 -9 -1 -60 hvcurveto
          hintmask 11011101
          -28 1 -74 4 126 callsubr
          71 -12 rlineto
          74 callgsubr
          -431 vlineto
          -17 -7 -46 -2 -13 vhcurveto
          -73 90 callsubr
          0 75 4 29 1 vhcurveto
          -1 77 67 -4 48 hhcurveto
          114 90 73 115 104 -71 61 -99 15 hvcurveto
          7 vlineto
          hintmask 11101010
          81 20 58 65 88 vvcurveto
          110 -87 62 -103 vhcurveto
          -104 -60 rmoveto
          3 25 29 3 29 hhcurveto
          70 48 -50 -80 hvcurveto
          hintmask 11101110
          -89 -62 -48 -80 vhcurveto
          -7 hlineto
          -7 -57 rlineto
          11 hlineto
          hintmask 11101101
          89 79 -45 -101 -90 -55 -48 -79 -33 -33 3 3 -25 hvcurveto
          -2 12 -4 52 44 vvcurveto
          371 vlineto
          hintmask 11101010
          44 5 60 2 13 vhcurveto
          endchar
        </CharString>
        <CharString name="C">
          -98 callgsubr
          endchar
        </CharString>
        <CharString name="Cacute">
          -98 callgsubr
          -100 879 -83 callsubr
        </CharString>
        <CharString name="Ccaron">
          -98 callgsubr
          -68 874 -59 callgsubr
        </CharString>
        <CharString name="Ccedilla">
          43 34 callgsubr
          -14 -21 80 57 619 58 hstemhm
          42 103 198 39 37 65 13 64 -51 62 hintmask 1010111101000000
          hintmask 1010111100100000
          569 170 rmoveto
          -59 -2 rlineto
          0 0 -37 -2 -10 vhcurveto
          -10 -7 -23 -7 -23 vhcurveto
          -13 -42 -53 -9 -41 hhcurveto
          -143 -70 137 173 173 70 136 144 hvcurveto
          hintmask 1001111101000000
          38 49 -10 -13 39 hvcurveto
          6 -20 6 -21 -9 vvcurveto
          -47 vlineto
          59 -4 10 148 rlineto
          16 -63 -62 18 -82 hhcurveto
          -210 -107 -150 -218 -214 103 -147 202 -5 hvcurveto
          -7 -80 11 -10 rlineto
          hintmask 1010111111000000
          -31 callgsubr
          hintmask 0110111101000000
          -13 -35 rlineto
          hintmask 1010111111000000
          -18 callsubr
          9 45 rlineto
          hintmask 1010111100100000
          67 4 61 15 55 14 rrcurveto
          endchar
        </CharString>
        <CharString name="Ccircumflex">
          -98 callgsubr
          -219 874 -55 callgsubr
        </CharString>
        <CharString name="Cdotaccent">
          43 -15 58 619 58 41 129 hstemhm
          42 103 152 118 82 64 -51 62 hintmask 11011100
          hintmask 11011010
          569 170 rmoveto
          -59 -2 rlineto
          0 0 -37 -2 -10 vhcurveto
          -10 -7 -23 -7 -23 vhcurveto
          -13 -42 -53 -9 -41 hhcurveto
          -143 -70 137 173 173 70 136 144 hvcurveto
          hintmask 11011100
          38 49 -10 -13 39 hvcurveto
          6 -20 6 -21 -9 vvcurveto
          -47 vlineto
          59 -4 10 148 rlineto
          16 -63 -62 18 -82 hhcurveto
          -210 -107 61 callsubr
          107 -149 210 hvcurveto
          hintmask 11111010
          81 72 18 16 63 hvcurveto
          -219 871 -87 callsubr
          endchar
        </CharString>
        <CharString name="D">
          -70 callgsubr
          endchar
        </CharString>
        <CharString name="Dcaron">
          -70 callgsubr
          147 238 -59 callgsubr
        </CharString>
        <CharString name="Dcroat">
          -78 callsubr
        </CharString>
        <CharString name="Delta">
          113 -15 59 672 -20 hstem
          25 630 vstem
          631 -15 rmoveto
          24 68 rlineto
          0 -35 59 -10 24 vhcurveto
          -9 22 -240 558 0 vvcurveto
          -54 -13 -216 -537 rlineto
          -9 -28 -57 -88 0 vvcurveto
          28 -65 rlineto
          460 149 rmoveto
          6 -16 11 -40 7 -28 rrcurveto
          -3 -116 -163 -3 -18 hhcurveto
          -34 -47 1 1 -41 hvcurveto
          7 24 8 32 4 16 184 467 rcurveline
          endchar
        </CharString>
        <CharString name="E">
          21 0 57 -40 -21 342 56 255 56 10 -20 5 callsubr
          hintmask 1011011000000000
          -66 callsubr
          -431 vlineto
          hintmask 0111011000000000
          -105 callsubr
          hintmask 1011011010000000
          -46 callgsubr
          hintmask 0111011010000000
          -53 callsubr
          hintmask 1011011010000000
          -107 callgsubr
          28 31 -3 -2 22 hvcurveto
          hintmask 1011011100000000
          -75 callsubr
          hintmask 1010111100000000
          -52 callgsubr
          -224 hlineto
          hintmask 1011011000000000
          62 callsubr
          endchar
        </CharString>
        <CharString name="Eacute">
          -107 callsubr
          364 188 rmoveto
          -229 -100 rlineto
          hintmask 1010101100000000
          -82 callgsubr
        </CharString>
        <CharString name="Ebreve">
          -50 callsubr
          63 56 -8 callgsubr
          -66 94 callgsubr
          -32 52 callsubr
          hintmask 1011001100100000
          -66 callsubr
          -431 vlineto
          hintmask 0111001100100000
          -105 callsubr
          hintmask 1011001100101000
          -46 callgsubr
          hintmask 0111001100101000
          -53 callsubr
          hintmask 1011001100101000
          -107 callgsubr
          28 31 -3 -2 22 hvcurveto
          hintmask 1011001100110000
          -75 callsubr
          hintmask 1010011100110000
          -52 callgsubr
          -224 hlineto
          hintmask 1011001100100000
          62 callsubr
          328 188 rmoveto
          -50 -33 -34 -50 vhcurveto
          hintmask 1010101101000000
          -50 -33 34 50 hvcurveto
          -56 hlineto
          -90 49 -50 90 vhcurveto
          hintmask 1011001011000000
          90 49 50 90 hvcurveto
          endchar
        </CharString>
        <CharString name="Ecaron">
          -107 callsubr
          396 183 rmoveto
          -88 -41 rlineto
          hintmask 1010101100000000
          -63 -25 -63 25 -88 41 -23 -39 174 -107 174 107 rlineto
          endchar
        </CharString>
        <CharString name="Ecircumflex">
          -107 callsubr
          245 183 rmoveto
          -174 -107 rlineto
          hintmask 1010101100000000
          -73 callgsubr
        </CharString>
        <CharString name="Edieresis">
          -50 callsubr
          70 119 hstemhm
          122 108 -100 91 137 108 -65 52 callsubr
          hintmask 1011000010100000
          -66 callsubr
          -431 vlineto
          hintmask 0111000010100000
          -105 callsubr
          hintmask 1011000010101000
          -46 callgsubr
          hintmask 0111000010101000
          -53 callsubr
          hintmask 1011000010101000
          -107 callgsubr
          28 31 -3 -2 22 hvcurveto
          hintmask 1011000010110000
          -75 callsubr
          hintmask 1010010010110000
          -52 callgsubr
          -224 hlineto
          hintmask 1011000010100000
          62 callsubr
          363 174 111 callsubr
          hintmask 1010101011000000
          -11 callsubr
          hvcurveto
          hintmask 1011001100100000
          36 18 23 36 -16 callgsubr
          hvcurveto
          endchar
        </CharString>
        <CharString name="Edotaccent">
          -50 callsubr
          66 129 -8 callgsubr
          14 118 48 52 callsubr
          hintmask 1011000101000000
          -66 callsubr
          -431 vlineto
          hintmask 0111000101000000
          -105 callsubr
          hintmask 1011000101010000
          -46 callgsubr
          hintmask 0111000101010000
          -53 callsubr
          hintmask 1011000101010000
          -107 callgsubr
          28 31 -3 -2 22 hvcurveto
          hintmask 1011000101100000
          -75 callsubr
          hintmask 1010010101100000
          -52 callgsubr
          -224 hlineto
          hintmask 1011000101000000
          62 callsubr
          245 180 rmoveto
          -38 -21 -27 -38 hvcurveto
          hintmask 1010100101000000
          -38 21 -26 38 vhcurveto
          hintmask 1011001111000000
          -76 callgsubr
          endchar
        </CharString>
        <CharString name="Egrave">
          -107 callsubr
          95 115 rmoveto
          0 132 -32 19 -6 vhcurveto
          hintmask 1010101100000000
          88 -37 20 48 -229 100 rlineto
          endchar
        </CharString>
        <CharString name="Emacron">
          -50 callsubr
          76 53 5 callsubr
          hintmask 1011001110000000
          -66 callsubr
          -431 vlineto
          hintmask 0111001110000000
          -105 callsubr
          hintmask 1011001110100000
          -46 callgsubr
          hintmask 0111001110100000
          -53 callsubr
          hintmask 1011001110100000
          -107 callgsubr
          28 31 -3 -2 22 hvcurveto
          hintmask 1011001111000000
          -75 callsubr
          hintmask 1010011111000000
          -52 callgsubr
          -224 hlineto
          hintmask 1011001110000000
          62 callsubr
          401 61 rmoveto
          5 53 rlineto
          hintmask 1010101110000000
          -322 -53 hlineto
          endchar
        </CharString>
        <CharString name="Eng">
          209 -9 callgsubr
          -20 21 hstemhm
          130 67 388 67 hintmask 1001000011000000
          hintmask 1000100011000000
          27 callgsubr
          hintmask 1001000011000000
          -63 callsubr
          hintmask 1000001011000000
          -20 21 rlineto
          hintmask 1000000111000000
          -44 hlineto
          -20 -1 -96 5 0 vvcurveto
          hintmask 1000100011000000
          -5 -54 rlineto
          hintmask 1000010011000000
          80 -12 rlineto
          hintmask 0011000011000000
          -68 callgsubr
          hintmask 1001000011000000
          7 59 -81 7 rlineto
          hintmask 0011000011000000
          -2 14 -5 50 42 vvcurveto
          hintmask 1001000011000000
          389 vlineto
          386 -552 rlineto
          -11 -38 -67 -144 0 vvcurveto
          34 -22 40 57 73 109 -1 27 rlinecurve
          0 1 264 40 vvcurveto
          231 vlineto
          hintmask 0100100011000000
          40 11 54 4 19 vhcurveto
          79 16 rlineto
          endchar
        </CharString>
        <CharString name="Eogonek">
          21 -197 42 151 61 -57 57 281 56 255 56 10 40 callgsubr
          89 64 27 52 callsubr
          hintmask 1011101010000000
          -66 callsubr
          -431 vlineto
          hintmask 1101101010000000
          -105 callsubr
          hintmask 1011101110000000
          93 callsubr
          vhcurveto
          213 hlineto
          -48 -42 -20 -26 -40 54 callgsubr
          hvcurveto
          hintmask 1101101110100000
          40 35 58 91 vhcurveto
          16 hlineto
          89 callsubr
          -55 5 rlineto
          hintmask 1011101010100000
          -2 -16 -10 -36 -3 -15 -107 callgsubr
          hintmask 1011101011000000
          60 callgsubr
          hintmask 1011011011000000
          -7 136 -52 callgsubr
          hintmask 1011101010000000
          -224 hlineto
          62 callsubr
          endchar
        </CharString>
        <CharString name="Eth">
          -78 callsubr
        </CharString>
        <CharString name="Etilde">
          -50 callsubr
          84 68 -27 68 5 callsubr
          hintmask 1011000011000000
          -66 callsubr
          -431 vlineto
          hintmask 0111000011000000
          -105 callsubr
          hintmask 1011000011010000
          -46 callgsubr
          hintmask 0111000011010000
          -53 callsubr
          hintmask 1011000011010000
          -107 callgsubr
          28 31 -3 -2 22 hvcurveto
          hintmask 1011000011100000
          -75 callsubr
          hintmask 1010010011100000
          -52 callgsubr
          -224 hlineto
          hintmask 1011000011000000
          62 callsubr
          372 188 -9 callsubr
          hintmask 1010101011000000
          -40 -75 100 callsubr
          36 -21 rlineto
          hintmask 1011000111000000
          0 26 54 27 vhcurveto
          19 callsubr
        </CharString>
        <CharString name="Euro">
          122 -15 58 196 35 -23 34 60 35 -23 34 213 58 hstemhm
          141 107 325 66 -52 64 hintmask 1010111100000000
          hintmask 1100111010000000
          52 237 rmoveto
          95 4 rlineto
          -155 25 100 -101 173 hhcurveto
          78 69 18 16 62 hvcurveto
          -6 151 -61 -2 rlineto
          0 0 -37 -2 -10 vhcurveto
          -10 -6 -23 -7 -23 vhcurveto
          -13 -39 -49 -9 -37 hhcurveto
          hintmask 1010111100000000
          -111 -64 85 118 -18 hvcurveto
          208 10 -2 34 -210 -10 rlineto
          -1 14 -1 15 15 vvcurveto
          28 vlineto
          209 10 -2 34 -203 -9 rlineto
          125 15 64 92 115 hhcurveto
          35 45 -10 -13 37 hvcurveto
          5 -20 5 -21 -9 vvcurveto
          -45 vlineto
          61 -6 11 148 rlineto
          16 -61 -60 18 -79 hhcurveto
          hintmask 1101011100000000
          -181 -101 -111 -169 -19 hvcurveto
          -99 -4 2 -35 94 4 rlineto
          -24 vlineto
          -16 0 -16 2 -15 vhcurveto
          -93 -4 rlineto
          endchar
        </CharString>
        <CharString name="F">
          -15 -65 callsubr
          335 56 263 56 5 -20 25 40 callgsubr
          180 49 21 54 hintmask 1011001100000000
          hintmask 1010011100000000
          503 715 rmoveto
          0 -94 -10 -20 vhcurveto
          hintmask 1011001100000000
          -224 hlineto
          -92 callgsubr
          hintmask 0110101100000000
          77 -12 rlineto
          2 -13 7 -46 -17 vvcurveto
          -431 -27 callsubr
          98 14 callgsubr
          76 -62 callsubr
          hintmask 1011001100000000
          -100 -87 callgsubr
          hintmask 0111001100000000
          160 vlineto
          hintmask 1011001100000000
          -93 callgsubr
          64 0 vhcurveto
          -46 5 -9 -66 rlineto
          0 -40 -9 -20 vhcurveto
          -73 hlineto
          -8 -18 1 1 -17 hvcurveto
          150 vlineto
          39 5 51 2 21 vhcurveto
          131 hlineto
          60 callgsubr
          hintmask 1011001110000000
          -7 136 rlineto
          endchar
        </CharString>
        <CharString name="G">
          99 34 callsubr
          hstemhm
          42 101 382 80 -78 63 hintmask 11111000
          -104 callsubr
          hintmask 11110100
          -53 callgsubr
          hintmask 11111000
          62 callgsubr
          endchar
        </CharString>
        <CharString name="Gbreve">
          48 callgsubr
          38 56 hstemhm
          42 101 98 94 callgsubr
          6 80 -78 63 hintmask 1111110100000000
          -104 callsubr
          hintmask 1111110010000000
          -53 callgsubr
          hintmask 1111110100000000
          62 callgsubr
          hintmask 1111111000000000
          87 178 rmoveto
          -81 callgsubr
        </CharString>
        <CharString name="Gcircumflex">
          48 callgsubr
          hstemhm
          42 101 382 80 -78 63 hintmask 11111000
          -104 callsubr
          hintmask 11110100
          -53 callgsubr
          hintmask 11111000
          62 callgsubr
          4 173 -55 callgsubr
        </CharString>
        <CharString name="Gcommaaccent">
          48 callgsubr
          hstemhm
          42 101 176 102 104 80 -78 63 hintmask 11110100
          -104 callsubr
          hintmask 11110010
          -53 callgsubr
          hintmask 11110100
          62 callgsubr
          hintmask 11111100
          -57 -836 rmoveto
          -34 23 -14 10 -4 vhcurveto
          -26 -15 -53 0 vhcurveto
          -74 callsubr
        </CharString>
        <CharString name="Gdieresis">
          48 callgsubr
          35 119 hstemhm
          42 101 65 29 callgsubr
          -27 80 -78 63 hintmask 1110100100000000
          -104 callsubr
          hintmask 1110100010000000
          -53 callgsubr
          hintmask 1110100100000000
          62 callgsubr
          hintmask 1111111000000000
          122 154 rmoveto
          -98 callsubr
        </CharString>
        <CharString name="Gdotaccent">
          48 callgsubr
          41 129 hstemhm
          42 101 178 118 86 80 -78 63 hintmask 11101010
          -104 callsubr
          hintmask 11101001
          -53 callgsubr
          hintmask 11101010
          62 callgsubr
          hintmask 11111110
          4 170 -87 callsubr
          endchar
        </CharString>
        <CharString name="Gtilde">
          48 callgsubr
          33 81 callsubr
          42 101 382 80 -78 63 hintmask 11110110
          -104 callsubr
          hintmask 11110101
          -53 callgsubr
          hintmask 11110110
          62 callgsubr
          136 152 -9 callsubr
          hintmask 11101110
          -40 -85 -36 callgsubr
          hintmask 11110110
          40 84 -44 callsubr
        </CharString>
        <CharString name="H">
          -89 callgsubr
          endchar
        </CharString>
        <CharString name="Hbar">
          206 -65 callsubr
          332 53 119 44 101 -6 callgsubr
          331 91 hintmask 1011010110000000
          hintmask 1011001110000000
          124 callgsubr
          hintmask 1011010110000000
          -92 callgsubr
          hintmask 1011001110000000
          17 callsubr
          hintmask 1011100110000000
          74 callgsubr
          -25 -331 vlineto
          41 5 46 2 14 vhcurveto
          78 7 rlineto
          hintmask 1011010110000000
          -4 59 rlineto
          -35 callsubr
          hintmask 1011001110000000
          -92 callgsubr
          hintmask 1011010110000000
          -58 callgsubr
          hintmask 1011001110000000
          -25 vlineto
          hintmask 0111100110000000
          -87 -44 87 -362 hlineto
          -105 callsubr
          0 98 5 20 80 66 -5 0 vhcurveto
          68 callgsubr
          hintmask 1011010110000000
          160 331 vlineto
          hintmask 0111010110000000
          -190 vlineto
          hintmask 1011010110000000
          -105 callsubr
          0 98 5 20 80 66 -62 callsubr
          hintmask 0111010110000000
          -90 -87 callgsubr
          332 104 vlineto
          hintmask 1011010110000000
          44 -104 vlineto
          hintmask 0111010110000000
          41 5 46 2 14 vhcurveto
          hintmask 1011010110000000
          78 7 rlineto
          -507 -273 rmoveto
          121 331 -116 vlineto
          endchar
        </CharString>
        <CharString name="Hcircumflex">
          -89 callgsubr
          -341 242 rmoveto
          hintmask 01101011
          -174 -107 rlineto
          hintmask 10101011
          -73 callgsubr
        </CharString>
        <CharString name="I">
          -97 callsubr
          endchar
        </CharString>
        <CharString name="IJ">
          48 -65 callsubr
          649 61 -58 57 -48 49 5 -20 hstemhm
          136 91 182 91 hintmask 10010011
          hintmask 10000111
          581 -28 callsubr
          hintmask 10010011
          -273 hlineto
          -92 callgsubr
          hintmask 10000111
          17 callsubr
          hintmask 10001011
          74 callgsubr
          hintmask 01100011
          -431 -27 callsubr
          98 5 20 80 66 -62 callsubr
          hintmask 10010011
          -90 -87 callgsubr
          hintmask 01010011
          371 vlineto
          hintmask 10100011
          -52 callsubr
          83 12 83 -12 rlineto
          74 callgsubr
          -557 vlineto
          hintmask 10001011
          -20 -80 -169 0 vhcurveto
          hintmask 10100011
          34 -22 rlineto
          47 56 90 107 27 vvcurveto
          548 -22 callgsubr
          endchar
        </CharString>
        <CharString name="Iacute">
          -97 callsubr
          -11 247 -83 callsubr
        </CharString>
        <CharString name="Ibreve">
          -39 callgsubr
          68 56 hstemhm
          43 56 37 91 38 56 hintmask 1001011110000000
          hintmask 1000111110000000
          78 callsubr
          hintmask 1001011110000000
          -92 callgsubr
          hintmask 1000111110000000
          17 callsubr
          hintmask 0110011110000000
          74 callgsubr
          -431 -27 callsubr
          98 5 20 80 66 -62 callsubr
          hintmask 1001011110000000
          -90 -87 callgsubr
          hintmask 0101011110000000
          371 vlineto
          hintmask 1001011110000000
          -51 callsubr
          -47 247 rmoveto
          -81 callgsubr
        </CharString>
        <CharString name="Icircumflex">
          -97 callsubr
          -130 242 -55 callgsubr
        </CharString>
        <CharString name="Idieresis">
          -39 callgsubr
          75 119 hstemhm
          40 108 -12 91 -11 108 hintmask 1001010100000000
          hintmask 1000111010000000
          270 884 26 callsubr
          214 -174 rmoveto
          hintmask 1001010100000000
          0 -57 -5 -80 81 callgsubr
          vhcurveto
          hintmask 1000110100000000
          -5 -54 rlineto
          hintmask 0110010100000000
          77 -12 rlineto
          2 -13 7 -46 -17 vvcurveto
          -431 -27 callsubr
          98 5 20 -37 callgsubr
          hintmask 1001010100000000
          7 59 -90 7 rlineto
          hintmask 0101010100000000
          -2 14 -5 50 42 vvcurveto
          hintmask 1001010100000000
          7 callgsubr
          endchar
        </CharString>
        <CharString name="Idotaccent">
          -39 callgsubr
          71 129 hstemhm
          123 118 -105 91 hintmask 10010001
          hintmask 10001001
          78 callsubr
          hintmask 10010001
          -92 callgsubr
          hintmask 10001001
          17 callsubr
          hintmask 01100001
          74 callgsubr
          -431 -27 callsubr
          98 5 20 80 66 -62 callsubr
          hintmask 10010001
          -90 -87 callgsubr
          hintmask 01010001
          371 vlineto
          hintmask 10010001
          -51 callsubr
          -130 239 rmoveto
          -38 -21 -27 -38 -65 callgsubr
          hvcurveto
          hintmask 10010110
          102 callgsubr
        </CharString>
        <CharString name="Igrave">
          -97 callsubr
          -280 174 rmoveto
          -20 callgsubr
        </CharString>
        <CharString name="Imacron">
          -39 callgsubr
          81 53 hstemhm
          109 91 hintmask 10010110
          279 771 rmoveto
          5 53 rlineto
          -258 -53 hlineto
          hintmask 10001110
          255 -61 rmoveto
          hintmask 10010110
          0 -57 -5 -80 81 callgsubr
          vhcurveto
          hintmask 10001110
          -5 -54 rlineto
          hintmask 01100110
          77 -12 rlineto
          2 -13 7 -46 -17 vvcurveto
          -431 -27 callsubr
          98 5 20 -37 callgsubr
          hintmask 10010110
          7 59 -90 7 rlineto
          hintmask 01010110
          -2 14 -5 50 42 vvcurveto
          hintmask 10010110
          7 callgsubr
          endchar
        </CharString>
        <CharString name="Iogonek">
          -204 -197 42 150 62 -57 57 587 -10 callsubr
          hstemhm
          25 64 47 91 hintmask 11001011
          108 13 rmoveto
          -55 -55 -28 -22 51 callsubr
          hvcurveto
          hintmask 10101011
          42 36 52 64 8 vhcurveto
          71 57 -5 0 hvcurveto
          hintmask 11001011
          68 callgsubr
          48 callsubr
          78 7 -4 59 rlineto
          hintmask 11000111
          0 -57 -5 -80 81 callgsubr
          vhcurveto
          hintmask 11001011
          -5 -54 17 callsubr
          hintmask 11000111
          74 callgsubr
          hintmask 11010011
          -431 vlineto
          -1 -76 -4 -25 -23 -23 rrcurveto
          endchar
        </CharString>
        <CharString name="Itilde">
          -39 callgsubr
          73 81 callsubr
          136 91 hintmask 10010101
          hintmask 10001101
          78 callsubr
          hintmask 10010101
          -92 callgsubr
          hintmask 10001101
          17 callsubr
          hintmask 01100101
          74 callgsubr
          -431 -27 callsubr
          98 5 20 80 66 -62 callsubr
          hintmask 10010101
          -90 -87 callgsubr
          hintmask 01010101
          371 vlineto
          hintmask 10010101
          -51 callsubr
          2 231 rmoveto
          0 -26 -51 -27 vhcurveto
          -40 -85 -36 callgsubr
          hintmask 10010011
          40 84 -44 callsubr
        </CharString>
        <CharString name="J">
          -30 callsubr
          endchar
        </CharString>
        <CharString name="Jcircumflex">
          -30 callsubr
          -58 249 rmoveto
          hintmask 01010000
          -174 -107 -73 callgsubr
        </CharString>
        <CharString name="K">
          82 callsubr
          -82 callsubr
          endchar
        </CharString>
        <CharString name="Kcommaaccent">
          82 callsubr
          98 102 -82 callsubr
          13 -767 rmoveto
          hintmask 01101000
          16 callsubr
          hintmask 10101100
          51 callgsubr
          -74 callsubr
        </CharString>
        <CharString name="L">
          -68 callsubr
          endchar
        </CharString>
        <CharString name="Lacute">
          -68 callsubr
          -9 247 -83 callsubr
        </CharString>
        <CharString name="Lcaron">
          -33 0 57 -40 -21 369 241 38 -6 callgsubr
          145 64 39 47 hintmask 1010101100000000
          348 607 rmoveto
          0 18 4 callsubr
          hintmask 1010011100000000
          -135 103 -57 callsubr
        </CharString>
        <CharString name="Lcommaaccent">
          -33 0 57 -40 -21 648 -6 callgsubr
          18 102 128 47 hintmask 10010100
          hintmask 10001100
          302 -28 callsubr
          hintmask 10010100
          -92 callgsubr
          hintmask 10001100
          17 callsubr
          hintmask 01100100
          74 callgsubr
          -431 -27 callsubr
          98 5 20 vhcurveto
          211 hlineto
          hintmask 10010101
          69 callsubr
          15 151 rlineto
          hintmask 01010101
          -55 5 -2 -16 -9 -36 -4 -15 rlinecurve
          -1 -7 -10 -16 -10 -14 rrcurveto
          -4 -22 -34 -5 -31 hhcurveto
          hintmask 10010101
          -26 callsubr
          -67 -767 61 callgsubr
          hintmask 10010110
          -74 callsubr
        </CharString>
        <CharString name="Ldot">
          -33 0 57 -40 -21 345 139 164 -6 callgsubr
          97 128 23 47 hintmask 1010101100000000
          382 480 15 callgsubr
          hintmask 1010011100000000
          -80 230 -57 callsubr
        </CharString>
        <CharString name="Lslash">
          -33 0 57 -40 -21 504 -20 164 -6 callgsubr
          248 47 hintmask 10101010
          hintmask 10100110
          302 -28 callsubr
          hintmask 10101010
          -92 callgsubr
          hintmask 10100110
          17 callsubr
          hintmask 01110010
          74 callgsubr
          -152 vlineto
          -100 -36 15 -41 85 31 rlineto
          -233 -27 callsubr
          98 5 20 vhcurveto
          211 hlineto
          hintmask 10101011
          69 callsubr
          15 151 rlineto
          hintmask 01101011
          -55 5 -2 -16 -9 -36 -4 -15 rlinecurve
          -1 -7 -10 -16 -10 -14 rrcurveto
          -4 -22 -34 -5 -31 hhcurveto
          hintmask 10101011
          -118 hlineto
          -2 15 -5 54 41 vvcurveto
          236 vlineto
          154 56 -15 41 -139 -51 rlineto
          89 -22 callgsubr
          endchar
        </CharString>
        <CharString name="M">
          361 -65 callsubr
          652 57 -48 54 -25 20 -20 21 4 -20 hstemhm
          27 880 -878 159 hintmask 1010000100000000
          674 705 rmoveto
          hintmask 1000100100000000
          -20 -20 rlineto
          0 -43 -126 -10 -22 vhcurveto
          -136 -362 -133 354 rlineto
          -9 24 -43 132 0 vvcurveto
          hintmask 1000010100000000
          -19 21 rlineto
          hintmask 1000010010000000
          -56 hlineto
          hintmask 1000001010000000
          -20 -1 -118 5 0 vvcurveto
          hintmask 0101000010000000
          -5 -54 82 -12 rlineto
          2 -14 2 -44 -17 vvcurveto
          -26 -437 -3 -17 -11 -41 -3 -13 rlinecurve
          -78 90 callsubr
          0 88 5 19 vhcurveto
          hintmask 1010000010000000
          78 51 -5 0 hvcurveto
          1 callgsubr
          hintmask 0110000010000000
          -81 7 rlineto
          hintmask 1010000010000000
          -1 16 -4 57 28 vvcurveto
          24 422 219 -584 rlineto
          36 hlineto
          219 584 27 -422 rlineto
          -28 -4 -58 -1 -15 vhcurveto
          -78 -16 rlineto
          hintmask 0110000100000000
          -67 callsubr
          0 100 5 19 -37 callgsubr
          6 59 rlineto
          hintmask 1010000100000000
          -81 7 -3 13 -10 41 -3 17 rlinecurve
          hintmask 0110000100000000
          -34 437 rlineto
          hintmask 1010000100000000
          17 1 46 2 12 vhcurveto
          80 7 90 callgsubr
          -75 -5 -80 vhcurveto
          endchar
        </CharString>
        <CharString name="N">
          -100 callgsubr
          endchar
        </CharString>
        <CharString name="Nacute">
          -100 callgsubr
          -246 241 -83 callsubr
        </CharString>
        <CharString name="Ncaron">
          -100 callgsubr
          -214 236 -59 callgsubr
        </CharString>
        <CharString name="Ncommaaccent">
          1 callsubr
          132 102 154 67 hintmask 1001000101000000
          hintmask 1000100101000000
          27 callgsubr
          hintmask 1001000101000000
          -63 callsubr
          hintmask 1000001101000000
          -20 21 rlineto
          hintmask 1001000101000000
          -44 -1 rlineto
          -92 callgsubr
          hintmask 1000100101000000
          80 -12 rlineto
          hintmask 0011000101000000
          -68 callgsubr
          7 59 rlineto
          hintmask 1001000101000000
          -81 -87 callgsubr
          hintmask 0011000101000000
          389 vlineto
          hintmask 1001000101000000
          394 -563 rlineto
          60 hlineto
          0 1 264 40 vvcurveto
          231 vlineto
          hintmask 0100010111000000
          40 11 54 4 19 vhcurveto
          79 16 rlineto
          -417 -773 rmoveto
          -34 23 -14 10 -4 vhcurveto
          -26 -15 -53 0 vhcurveto
          -74 callsubr
        </CharString>
        <CharString name="Ntilde">
          194 -9 callgsubr
          58 81 callsubr
          130 67 388 67 hintmask 1001000101100000
          hintmask 1000100101100000
          27 callgsubr
          hintmask 1001000101100000
          -63 callsubr
          hintmask 1000001101100000
          -20 21 rlineto
          hintmask 1001000101100000
          -44 -1 rlineto
          -92 callgsubr
          hintmask 1000100101100000
          80 -12 rlineto
          hintmask 0011000101100000
          -68 callgsubr
          7 59 rlineto
          hintmask 1001000101100000
          -81 -87 callgsubr
          hintmask 0011000101100000
          389 vlineto
          hintmask 1001000101100000
          394 -563 rlineto
          60 hlineto
          0 1 264 40 vvcurveto
          231 vlineto
          hintmask 0100010101100000
          40 11 54 4 19 vhcurveto
          79 16 rlineto
          -233 225 rmoveto
          0 -26 -51 -27 vhcurveto
          -40 -85 -36 callgsubr
          hintmask 1001000011100000
          40 84 -44 callsubr
        </CharString>
        <CharString name="O">
          173 -15 53 629 53 hstem
          42 107 442 107 vstem
          -104 callgsubr
          endchar
        </CharString>
        <CharString name="OE">
          414 -15 53 -38 57 -40 -21 344 52 257 56 -38 53 -5 -20 hstemhm
          42 107 374 91 180 52 callsubr
          hintmask 0101100111010000
          943 165 rmoveto
          -55 5 -2 -16 -10 -36 -3 -15 rlinecurve
          -2 -9 -9 -14 -10 -14 rrcurveto
          -4 -22 -34 -5 -31 hhcurveto
          -144 hlineto
          -2 19 -5 51 40 vvcurveto
          170 vlineto
          2 17 17 1 9 hhcurveto
          53 37 callgsubr
          -73 hlineto
          -8 -18 1 1 -17 hvcurveto
          144 vlineto
          36 3 37 4 38 vhcurveto
          131 hlineto
          hintmask 0101100111100000
          60 callgsubr
          hintmask 0101001111100000
          -7 136 -52 callgsubr
          hintmask 0101100111010000
          -224 hlineto
          -13 -48 2 2 -30 hvcurveto
          7 -30 -32 4 -35 hhcurveto
          hintmask 1001010111010000
          -217 -111 -150 -218 -2 callgsubr
          35 32 4 7 30 hvcurveto
          2 30 48 2 13 hhcurveto
          hintmask 0101100111010000
          237 hlineto
          69 callsubr
          rlineto
          hintmask 0011100111010000
          -405 94 rmoveto
          -44 -36 -52 -26 -65 hhcurveto
          hintmask 1001010111010000
          -149 -72 140 174 175 72 140 149 64 52 -28 -44 37 hvcurveto
          endchar
        </CharString>
        <CharString name="Oacute">
          173 -15 53 629 53 hstem
          42 107 442 107 vstem
          -104 callgsubr
          340 546 -83 callsubr
        </CharString>
        <CharString name="Obreve">
          58 callgsubr
          38 56 hstem
          42 107 82 94 callgsubr
          82 107 vstem
          -104 callgsubr
          304 546 rmoveto
          -81 callgsubr
        </CharString>
        <CharString name="Ocircumflex">
          173 -15 53 629 53 hstem
          42 107 442 107 vstem
          -104 callgsubr
          221 541 -55 callgsubr
        </CharString>
        <CharString name="Odieresis">
          58 callgsubr
          45 119 hstem
          42 107 49 29 callgsubr
          49 107 vstem
          -104 callgsubr
          339 532 rmoveto
          -98 callsubr
        </CharString>
        <CharString name="Ograve">
          173 -15 53 629 53 hstem
          42 107 442 107 vstem
          -104 callgsubr
          71 473 rmoveto
          -20 callgsubr
        </CharString>
        <CharString name="Ohungarumlaut">
          173 -15 53 629 53 hstem
          42 107 442 107 vstem
          -104 callgsubr
          249 561 rmoveto
          -211 -136 -7 callsubr
        </CharString>
        <CharString name="Omacron">
          58 callgsubr
          51 53 hstem
          42 107 442 107 vstem
          -104 callgsubr
          377 419 24 callsubr
        </CharString>
        <CharString name="Omega">
          227 0 57 -40 -21 671 53 hstemhm
          79 107 94 56 122 56 94 107 -1 47 hintmask 10110010
          203 57 rmoveto
          -31 -34 5 4 -22 hvcurveto
          -10 14 -9 15 -2 8 -4 15 -9 36 -2 16 -55 -5 rcurveline
          hintmask 01110010
          15 -158 10 -11 rlineto
          0 103 4 20 vhcurveto
          hintmask 10111010
          64 hlineto
          40 54 -4 0 hvcurveto
          10 97 rlineto
          hintmask 01111110
          -109 49 -46 90 150 vvcurveto
          150 61 135 150 150 61 -135 -150 -150 -46 -90 -109 -49 vhcurveto
          10 -97 rlineto
          0 54 4 40 vhcurveto
          64 hlineto
          20 103 -4 0 hvcurveto
          hintmask 10110101
          10 11 15 158 -55 5 rlineto
          hintmask 01110001
          -2 -16 -9 -36 -4 -15 -2 -8 -9 -15 -10 -14 rrcurveto
          -4 -22 -34 -5 -31 hhcurveto
          -77 -4 rlineto
          hintmask 10110101
          13 vlineto
          130 52 71 101 163 vvcurveto
          205 -113 133 -205 -205 -113 -133 -205 -163 70 -101 131 -52 vhcurveto
          hintmask 10111010
          -13 vlineto
          endchar
        </CharString>
        <CharString name="Oslash">
          -67 callgsubr
          endchar
        </CharString>
        <CharString name="Oslashacute">
          -67 callgsubr
          -102 546 -83 callsubr
        </CharString>
        <CharString name="Otilde">
          58 callgsubr
          43 81 callsubr
          42 107 442 107 hintmask 11101100
          -104 callgsubr
          353 530 -9 callsubr
          hintmask 11011100
          -40 -85 -36 callgsubr
          hintmask 11101100
          40 84 -44 callsubr
        </CharString>
        <CharString name="P">
          19 -65 callsubr
          296 50 324 50 -5 40 callgsubr
          241 94 hintmask 10110110
          333 715 rmoveto
          -47 -84 -9 -1 -54 hvcurveto
          hintmask 01101110
          -34 1 -65 4 0 vvcurveto
          -5 -54 77 -12 rlineto
          2 -13 7 -46 -17 vvcurveto
          -431 -27 callsubr
          98 5 20 vhcurveto
          hintmask 10110110
          80 70 -5 0 hvcurveto
          1 callgsubr
          hintmask 01110110
          -94 7 rlineto
          hintmask 10110110
          -2 14 -5 50 42 vvcurveto
          125 vlineto
          -1 28 32 0 29 hhcurveto
          95 callsubr
          hvcurveto
          -112 -177 rmoveto
          35 4 61 3 26 vhcurveto
          3 26 24 2 13 114 callgsubr
          -18 -25 2 2 -26 hvcurveto
          endchar
        </CharString>
        <CharString name="Q">
          178 -15 53 -16 -21 666 53 hstemhm
          42 107 442 107 hintmask 10111000
          669 -224 rmoveto
          59 92 rlineto
          hintmask 01111000
          0 -142 61 -16 11 vhcurveto
          -87 61 rlineto
          143 44 72 132 175 vvcurveto
          218 -111 150 -217 -217 -111 -150 -218 vhcurveto
          hintmask 10111000
          -2 callgsubr
          13 12 1 1 12 vhcurveto
          -258 365 rmoveto
          175 72 140 149 149 72 -140 -175 -174 -72 -140 -149 -149 -72 140 174 vhcurveto
          endchar
        </CharString>
        <CharString name="R">
          79 -101 callgsubr
          endchar
        </CharString>
        <CharString name="Racute">
          77 -101 callgsubr
          141 233 -83 callsubr
        </CharString>
        <CharString name="Rcaron">
          77 -101 callgsubr
          173 228 -59 callgsubr
        </CharString>
        <CharString name="Rcommaaccent">
          77 -5 62 -57 57 244 50 314 50 -5 40 callgsubr
          98 102 38 94 hintmask 01110111
          332 715 rmoveto
          -46 -83 -8 -2 -54 hvcurveto
          hintmask 10101111
          -33 2 -67 3 0 vvcurveto
          110 callgsubr
          -14 7 -46 -16 vvcurveto
          -431 -27 callsubr
          98 5 20 vhcurveto
          hintmask 01110111
          80 66 -5 0 hvcurveto
          1 callgsubr
          hintmask 10110111
          -90 7 rlineto
          hintmask 01110111
          -2 14 -5 50 42 vvcurveto
          135 vlineto
          -1 27 32 0 29 hhcurveto
          7 hlineto
          98 -185 rlineto
          13 -24 42 -92 0 vvcurveto
          80 78 -5 0 hvcurveto
          1 callgsubr
          hintmask 10110111
          -72 7 rlineto
          hintmask 01110111
          -16 22 -24 33 -9 15 -6 8 -51 83 -49 94 rrcurveto
          85 28 61 66 98 vvcurveto
          138 -84 69 -137 vhcurveto
          -42 -50 rmoveto
          103 66 -53 -105 -105 -67 -51 -103 -18 -25 2 2 -25 hvcurveto
          183 vlineto
          44 4 52 4 25 vhcurveto
          3 25 24 3 12 hhcurveto
          29 -781 rmoveto
          -34 23 -14 10 -4 vhcurveto
          -26 -15 -53 0 vhcurveto
          -74 callsubr
        </CharString>
        <CharString name="S">
          -100 callsubr
          endchar
        </CharString>
        <CharString name="Sacute">
          -100 callsubr
          265 712 -83 callsubr
        </CharString>
        <CharString name="Scaron">
          -100 callsubr
          297 707 -59 callgsubr
        </CharString>
        <CharString name="Scedilla">
          -8 34 callgsubr
          -44 148 -118 -21 101 -21 679 55 hstemhm
          57 73 -67 100 77 39 37 65 23 105 -100 66 hintmask 1010011010010000
          hintmask 1000111101010000
          65 192 rmoveto
          -15 -154 rlineto
          0 75 -46 119 -6 vhcurveto
          -7 -80 11 -10 rlineto
          hintmask 1010011011110000
          -31 callgsubr
          hintmask 0110011010010000
          -13 -35 rlineto
          hintmask 1010011011110000
          -18 callsubr
          9 45 rlineto
          hintmask 1010011010010000
          123 6 97 63 127 227 -346 -12 157 vvcurveto
          74 52 37 62 vhcurveto
          hintmask 1010011010001000
          45 32 -4 -18 42 hvcurveto
          6 -23 7 -24 -9 vvcurveto
          -44 vlineto
          59 -6 14 151 rlineto
          16 -64 -73 16 -65 hhcurveto
          -124 -93 -65 -120 hvcurveto
          hintmask 1001001010010000
          -216 341 15 -164 vvcurveto
          -81 -52 -44 -80 vhcurveto
          hintmask 1001001100010000
          -49 -46 13 14 -35 hvcurveto
          -5 22 -6 32 12 vvcurveto
          48 vlineto
          endchar
        </CharString>
        <CharString name="Scircumflex">
          -100 callsubr
          146 707 -55 callgsubr
        </CharString>
        <CharString name="Scommaaccent">
          -8 -15 60 620 55 hstemhm
          57 73 -67 100 61 102 78 105 -100 66 hintmask 11010100
          hintmask 11100100
          65 192 rmoveto
          -15 -154 rlineto
          0 86 -53 134 132 107 64 133 vhcurveto
          hintmask 11010100
          227 -346 -12 157 vvcurveto
          74 52 37 62 vhcurveto
          hintmask 11010010
          45 32 -4 -18 42 hvcurveto
          6 -23 7 -24 -9 vvcurveto
          -44 vlineto
          59 -6 14 151 rlineto
          16 -64 -73 16 -65 hhcurveto
          -124 -93 -65 -120 hvcurveto
          hintmask 11010100
          -216 341 15 -164 vvcurveto
          -81 -52 -44 -80 vhcurveto
          hintmask 11101100
          -49 -46 13 14 -35 hvcurveto
          -5 22 -6 32 12 vvcurveto
          48 vlineto
          93 -302 rmoveto
          -34 23 -14 10 -4 vhcurveto
          -26 -15 -53 0 vhcurveto
          -74 callsubr
        </CharString>
        <CharString name="T">
          -78 callgsubr
          endchar
        </CharString>
        <CharString name="Tbar">
          28 -65 callsubr
          358 44 252 49 callgsubr
          184 54 hintmask 10110011
          585 553 rmoveto
          hintmask 10101011
          -7 144 -52 callgsubr
          hintmask 10110111
          -295 4 callgsubr
          hintmask 10101111
          -14 callgsubr
          hintmask 01110111
          2 22 31 3 28 hhcurveto
          63 hlineto
          2 -19 7 -47 -15 vvcurveto
          -171 -155 -44 155 -216 -27 callsubr
          98 5 20 80 66 -62 callsubr
          hintmask 10110011
          -90 -87 callgsubr
          hintmask 01110011
          186 vlineto
          hintmask 10110011
          154 44 -154 141 hlineto
          43 callsubr
        </CharString>
        <CharString name="Tcaron">
          -78 callgsubr
          -78 345 -59 callgsubr
        </CharString>
        <CharString name="Tcedilla">
          28 34 callgsubr
          -14 -21 89 62 -36 -21 649 49 callgsubr
          -75 39 36 65 119 54 hintmask 1010101001001000
          585 553 rmoveto
          hintmask 1010100101001000
          -7 144 -52 callgsubr
          hintmask 1010101011001000
          -295 4 callgsubr
          hintmask 1010100111001000
          -14 callgsubr
          hintmask 1010101011001000
          2 22 31 3 28 hhcurveto
          63 hlineto
          2 -19 7 -47 -15 vvcurveto
          -431 vlineto
          -105 callsubr
          hintmask 1010101000101000
          0 69 4 34 1 vhcurveto
          -8 -94 11 -10 rlineto
          hintmask 1001011000101000
          0 15 1 6 27 20 -13 -30 -30 -22 -17 -32 vhcurveto
          hintmask 1010101000111000
          -20 -22 6 5 -16 hvcurveto
          -13 -35 rlineto
          -8 17 29 -10 37 hhcurveto
          59 48 35 54 hvcurveto
          hintmask 0110101001001000
          54 -42 32 -59 1 vhcurveto
          hintmask 1010101000111000
          12 59 rlineto
          64 -1 50 -4 0 vvcurveto
          1 callgsubr
          hintmask 1010011001001000
          -90 7 rlineto
          hintmask 1010101001001000
          -2 14 -5 50 42 vvcurveto
          371 vlineto
          43 callsubr
        </CharString>
        <CharString name="Thorn">
          18 -65 callsubr
          154 50 324 50 71 -6 callgsubr
          240 94 hintmask 1011010110000000
          306 651 rmoveto
          hintmask 1011001110000000
          -4 59 rlineto
          -35 callsubr
          hintmask 1011010110000000
          -92 callgsubr
          hintmask 1011001110000000
          17 callsubr
          hintmask 0111100110000000
          74 callgsubr
          -431 -27 callsubr
          98 5 20 80 66 -62 callsubr
          hintmask 1011010110000000
          -90 7 -2 12 -4 40 -1 38 rlinecurve
          hintmask 0111010110000000
          -1 28 32 -1 28 hhcurveto
          hintmask 1011010110000000
          95 callsubr
          -31 -41 -3 -3 -38 hvcurveto
          1 33 3 33 2 11 rrcurveto
          -7 -127 rmoveto
          3 26 27 3 16 114 callgsubr
          -17 -26 2 3 -25 hvcurveto
          endchar
        </CharString>
        <CharString name="U">
          -106 callsubr
          endchar
        </CharString>
        <CharString name="Uacute">
          -106 callsubr
          -224 247 rmoveto
          -229 -100 rlineto
          hintmask 10101100
          -82 callgsubr
        </CharString>
        <CharString name="Ubreve">
          -32 callgsubr
          68 56 hstemhm
          105 95 26 94 callgsubr
          46 72 hintmask 1010110110000000
          hintmask 1001110110000000
          -30 callgsubr
          hintmask 1010110110000000
          -20 -86 5 0 hvcurveto
          -5 -54 rlineto
          hintmask 1001110110000000
          78 -12 rlineto
          hintmask 1100110110000000
          -97 callgsubr
          hintmask 1010110110000000
          6 callgsubr
          hintmask 1001110110000000
          -92 callgsubr
          hintmask 1010110110000000
          -17 callgsubr
          hintmask 1001110110000000
          -297 vlineto
          hintmask 1100110110000000
          -90 callgsubr
          -260 247 rmoveto
          -50 -33 -34 -50 vhcurveto
          hintmask 1010111110000000
          -50 -33 34 50 hvcurveto
          -56 hlineto
          -90 49 -50 90 90 49 50 90 vhcurveto
          endchar
        </CharString>
        <CharString name="Ucircumflex">
          -106 callsubr
          -343 242 rmoveto
          -174 -107 rlineto
          hintmask 10101100
          -73 callgsubr
        </CharString>
        <CharString name="Udieresis">
          -32 callgsubr
          75 119 hstemhm
          105 95 -7 29 callgsubr
          13 72 hintmask 1010010010000000
          hintmask 1001010010000000
          -30 callgsubr
          hintmask 1010010010000000
          -20 -86 5 0 hvcurveto
          -5 -54 rlineto
          hintmask 1001010010000000
          78 -12 rlineto
          hintmask 1100010010000000
          -97 callgsubr
          hintmask 1010010010000000
          6 callgsubr
          hintmask 1001010010000000
          -92 callgsubr
          hintmask 1010010010000000
          -17 callgsubr
          hintmask 1001010010000000
          -297 vlineto
          hintmask 1100010010000000
          -90 callgsubr
          -225 233 111 callsubr
          hintmask 1010010010000000
          -36 18 -23 36 36 18 23 36 vhcurveto
          hintmask 1010101110000000
          -16 callgsubr
          vhcurveto
          -236 hmoveto
          -102 callsubr
          endchar
        </CharString>
        <CharString name="Ugrave">
          -106 callsubr
          -493 174 rmoveto
          0 132 -32 19 -6 vhcurveto
          hintmask 10101100
          88 -37 20 48 -229 100 rlineto
          endchar
        </CharString>
        <CharString name="Uhungarumlaut">
          -106 callsubr
          -315 262 rmoveto
          -211 -136 rlineto
          hintmask 10101100
          -7 callsubr
        </CharString>
        <CharString name="Umacron">
          -32 callgsubr
          81 53 hstemhm
          105 95 4 80 266 72 hintmask 10101101
          hintmask 10011101
          -30 callgsubr
          hintmask 10101101
          -20 -86 5 0 hvcurveto
          -5 -54 rlineto
          hintmask 10011101
          78 -12 rlineto
          hintmask 11001101
          -97 callgsubr
          hintmask 10101101
          -4 59 rlineto
          hintmask 10101011
          0 -64 -5 -80 vhcurveto
          hintmask 10011011
          -92 callgsubr
          hintmask 10101101
          -17 callgsubr
          hintmask 10011101
          -297 vlineto
          hintmask 11001101
          -90 callgsubr
          -187 120 rmoveto
          5 53 rlineto
          hintmask 10101011
          -322 -53 hlineto
          endchar
        </CharString>
        <CharString name="Uogonek">
          160 -197 42 140 64 595 -10 callsubr
          hstemhm
          105 95 101 64 185 72 hintmask 11010101
          hintmask 11001101
          -30 callgsubr
          hintmask 11010101
          -20 -86 5 0 hvcurveto
          -5 -54 rlineto
          hintmask 11001101
          78 -12 rlineto
          hintmask 11100101
          -97 callgsubr
          hintmask 11010101
          6 callgsubr
          hintmask 11001101
          -92 callgsubr
          hintmask 11010101
          -17 callgsubr
          hintmask 11001101
          -297 vlineto
          hintmask 11100111
          -168 83 -108 164 -5 vhcurveto
          -36 -34 -15 -24 -35 -36 callsubr
          -7 -16 -20 -6 -20 hhcurveto
          -39 -16 20 27 28 16 37 25 31 hvcurveto
          142 17 74 105 156 vvcurveto
          267 vlineto
          43 5 53 2 15 vhcurveto
          79 7 rlineto
          endchar
        </CharString>
        <CharString name="Uring">
          -32 callgsubr
          55 38 95 38 hstemhm
          105 95 75 49 83 47 96 72 hintmask 1010111111000000
          hintmask 1001111111000000
          -30 callgsubr
          hintmask 1010111111000000
          -20 -86 5 0 hvcurveto
          -5 -54 rlineto
          hintmask 1001111111000000
          78 -12 rlineto
          hintmask 1100111111000000
          -97 callgsubr
          hintmask 1010111111000000
          6 callgsubr
          hintmask 1001111111000000
          -92 callgsubr
          hintmask 1010111111000000
          -17 callgsubr
          hintmask 1001111111000000
          -297 vlineto
          hintmask 1100111111000000
          -90 callgsubr
          -343 265 rmoveto
          -60 -30 -34 -52 hvcurveto
          hintmask 1010111111000000
          -51 30 -34 60 60 29 34 51 52 -29 34 -60 vhcurveto
          -38 vmoveto
          31 11 -22 -26 -25 -11 -22 -31 -29 -12 22 25 26 12 22 29 hvcurveto
          endchar
        </CharString>
        <CharString name="Utilde">
          -32 callgsubr
          73 81 callsubr
          105 95 350 72 hintmask 10100011
          hintmask 10010011
          -30 callgsubr
          hintmask 10100011
          -20 -86 5 0 hvcurveto
          -5 -54 rlineto
          hintmask 10010011
          78 -12 rlineto
          hintmask 11000011
          -97 callgsubr
          hintmask 10100011
          6 callgsubr
          hintmask 10010011
          -92 callgsubr
          hintmask 10100011
          -17 callgsubr
          hintmask 10010011
          -297 vlineto
          hintmask 11000011
          -90 callgsubr
          -211 231 -9 callsubr
          hintmask 10101011
          -40 -85 -36 callgsubr
          hintmask 10100111
          40 84 -44 callsubr
        </CharString>
        <CharString name="V">
          126 21 -21 641 64 -59 59 -44 44 5 -20 hstemhm
          -1 689 hintmask 10100100
          323 hmoveto
          61 hlineto
          190 545 rlineto
          hintmask 10010100
          19 54 27 45 0 vvcurveto
          68 17 rlineto
          hintmask 10001100
          -26 callgsubr
          hintmask 10100100
          -10 callgsubr
          -4 -42 -7 -21 vhcurveto
          -149 -430 -147 385 rlineto
          -22 57 -8 51 0 vvcurveto
          hintmask 11000100
          79 20 rlineto
          hintmask 10010100
          -4 49 rlineto
          hintmask 10001100
          0 -122 -5 -25 vhcurveto
          -109 hlineto
          hintmask 10100100
          53 callgsubr
          hintmask 11000100
          0 29 -48 14 -37 vhcurveto
          endchar
        </CharString>
        <CharString name="W">
          -102 callgsubr
          endchar
        </CharString>
        <CharString name="Wacute">
          -102 callgsubr
          -316 254 rmoveto
          hintmask 01001010
          -229 -100 -82 callgsubr
        </CharString>
        <CharString name="Wcircumflex">
          -102 callgsubr
          -435 249 rmoveto
          hintmask 01001010
          -174 -107 -73 callgsubr
        </CharString>
        <CharString name="Wdieresis">
          444 0 148 -127 -21 641 64 -59 59 -44 44 5 -20 75 119 hstemhm
          334 29 callgsubr
          hintmask 0101001110000000
          hintmask 0100101110000000
          1009 661 rmoveto
          hintmask 0100011110000000
          -26 callgsubr
          hintmask 1001001110000000
          -10 callgsubr
          -4 -37 -7 -26 vhcurveto
          -123 -430 -169 537 rlineto
          -53 hlineto
          -158 -537 -115 385 rlineto
          -15 51 -12 57 0 vvcurveto
          hintmask 0110001110000000
          79 20 rlineto
          hintmask 0100101110000000
          -4 49 rlineto
          hintmask 0100011110000000
          0 -122 -5 -25 vhcurveto
          -109 hlineto
          hintmask 0101001110000000
          53 callgsubr
          hintmask 0110001110000000
          0 26 -43 14 -42 vhcurveto
          183 -556 rlineto
          61 hlineto
          152 506 167 -506 rlineto
          61 hlineto
          164 545 rlineto
          12 39 34 60 0 vvcurveto
          -317 240 rmoveto
          hintmask 0100101110000000
          -98 callsubr
        </CharString>
        <CharString name="Wgrave">
          -102 callgsubr
          -585 181 rmoveto
          hintmask 01001010
          -20 callgsubr
        </CharString>
        <CharString name="X">
          151 0 59 -43 -21 651 59 -42 42 5 -20 hstemhm
          18 694 hintmask 10100100
          306 355 rmoveto
          -131 -191 rlineto
          hintmask 01100100
          -17 -24 -55 -56 -24 -25 -61 -17 rcurveline
          5 -47 rlineto
          0 149 5 16 vhcurveto
          hintmask 10100100
          22 58 -1 0 hvcurveto
          7 55 -80 10 11 23 14 29 10 16 rlinecurve
          114 169 113 -159 14 -18 19 -37 12 -27 rlinecurve
          hintmask 01100100
          -66 -18 5 -47 rlineto
          0 151 5 33 15 65 -1 0 vhcurveto
          hintmask 10010100
          7 55 -79 10 -21 22 -27 30 -13 16 rlinecurve
          -169 236 129 201 15 19 41 38 23 21 rlinecurve
          69 16 -5 47 rlineto
          0 -119 -5 -53 vhcurveto
          hintmask 10001100
          -28 -52 1 0 hvcurveto
          -7 -55 rlineto
          hintmask 10100100
          78 -10 -11 -22 -13 -26 -9 -15 rlinecurve
          -97 -156 -95 133 -14 19 -17 43 -10 24 rlinecurve
          79 22 -5 47 rlineto
          hintmask 10010100
          0 -154 -5 -33 -20 -69 1 0 vhcurveto
          hintmask 10001100
          -7 -55 81 -10 rlineto
          hintmask 10100100
          17 -22 31 -41 14 -20 rrcurveto
          endchar
        </CharString>
        <CharString name="Y">
          -103 callgsubr
          endchar
        </CharString>
        <CharString name="Yacute">
          -103 callgsubr
          -126 254 -83 callsubr
        </CharString>
        <CharString name="Ycircumflex">
          -103 callgsubr
          -245 249 -55 callgsubr
        </CharString>
        <CharString name="Ydieresis">
          96 -65 callsubr
          646 64 -59 59 -44 44 5 -20 75 119 hstemhm
          160 108 15 91 22 108 -77 callsubr
          -363 240 rmoveto
          -16 callsubr
          -36 18 -23 36 36 18 23 36 hvcurveto
          hintmask 1001001111000000
          -16 callgsubr
          vhcurveto
          236 hmoveto
          -102 callsubr
          endchar
        </CharString>
        <CharString name="Ygrave">
          -103 callgsubr
          -395 181 rmoveto
          -20 callgsubr
        </CharString>
        <CharString name="Ytilde">
          96 -65 callsubr
          646 64 -59 59 -44 44 5 -20 73 81 callsubr
          283 91 -77 callsubr
          -134 238 rmoveto
          0 -26 -51 -27 vhcurveto
          -40 -85 -36 callgsubr
          hintmask 1001000110000000
          40 84 -44 callsubr
        </CharString>
        <CharString name="Z">
          -94 callgsubr
          endchar
        </CharString>
        <CharString name="Zacute">
          -94 callgsubr
          182 252 -83 callsubr
        </CharString>
        <CharString name="Zcaron">
          -94 callgsubr
          214 247 -59 callgsubr
        </CharString>
        <CharString name="Zdotaccent">
          -10 0 59 -42 -21 532 -20 138 59 10 -20 66 129 hstemhm
          46 54 120 118 137 47 hintmask 1011011110000000
          399 646 rmoveto
          -70 -126 -190 -301 rlineto
          -30 -48 -82 -114 0 vvcurveto
          7 -57 rlineto
          348 13 callsubr
          hintmask 0111011110000000
          19 18 15 161 -55 5 -2 -16 -9 -46 -4 -15 rlinecurve
          hintmask 1011011110000000
          -1 -7 -9 -15 -10 -13 rrcurveto
          -4 -22 -35 -5 -31 hhcurveto
          -203 hlineto
          73 132 191 303 108 155 -7 56 rlineto
          -331 4 callgsubr
          hintmask 1010111110000000
          -7 -169 58 -5 2 26 7 43 4 15 rlinecurve
          16 34 rlineto
          hintmask 1011011110000000
          2 22 35 3 29 hhcurveto
          63 244 -87 callsubr
          endchar
        </CharString>
        <CharString name="a">
          -51 -38 callgsubr
          392 54 hstemhm
          45 88 -54 63 197 81 hintmask 10010110
          hintmask 00110110
          363 hmoveto
          -62 callgsubr
          hvcurveto
          hintmask 01010110
          1 callgsubr
          hintmask 10010110
          -69 7 rlineto
          hintmask 01010110
          -103 callsubr
          hintmask 10011010
          -95 callsubr
          endchar
        </CharString>
        <CharString name="a.sups">
          -58 callsubr
        </CharString>
        <CharString name="aacute">
          -51 -38 callgsubr
          392 54 252 -20 -99 callgsubr
          138 555 -69 callsubr
        </CharString>
        <CharString name="abreve">
          -51 -38 callgsubr
          392 54 84 56 hstemhm
          45 88 -54 63 -33 94 callgsubr
          -48 81 hintmask 1001101001000000
          hintmask 0011101001000000
          363 hmoveto
          -62 callgsubr
          hvcurveto
          hintmask 0101101001000000
          1 callgsubr
          hintmask 1001101001000000
          -69 7 rlineto
          hintmask 0101101001000000
          -103 callsubr
          hintmask 1001110001000000
          -95 callsubr
          135 527 rmoveto
          hintmask 1001100110000000
          -81 callgsubr
        </CharString>
        <CharString name="acircumflex">
          -51 -38 callgsubr
          392 54 262 -20 -99 callgsubr
          52 565 -86 callsubr
        </CharString>
        <CharString name="acute">
          755 -20 hstem
          66 227 vstem
          246 755 -69 callsubr
        </CharString>
        <CharString name="acute.cap">
          539 148 hstem
          50 259 vstem
          279 687 -83 callsubr
        </CharString>
        <CharString name="adieresis">
          -51 -38 callgsubr
          392 54 91 119 hstemhm
          45 88 -57 108 -105 63 170 108 -81 81 hintmask 1001100101000000
          hintmask 0011100101000000
          363 hmoveto
          -62 callgsubr
          hvcurveto
          hintmask 0101100101000000
          1 callgsubr
          hintmask 1001100101000000
          -69 7 rlineto
          hintmask 0101100101000000
          -103 callsubr
          hintmask 1001110001000000
          -95 callsubr
          170 513 rmoveto
          hintmask 1001101010000000
          -98 callsubr
        </CharString>
        <CharString name="ae">
          189 -10 65 394 54 -53 52 113 callgsubr
          hintmask 10110110
          hintmask 11001110
          43 callgsubr
          hintmask 10110110
          -1 callgsubr
          hintmask 11001110
          54 callsubr
          hintmask 10110110
          35 callsubr
          endchar
        </CharString>
        <CharString name="aeacute">
          189 -10 65 394 54 -53 52 253 -20 113 callgsubr
          hintmask 10111011
          hintmask 11010111
          43 callgsubr
          hintmask 10111011
          -1 callgsubr
          hintmask 11010111
          54 callsubr
          hintmask 10111011
          35 callsubr
          -60 305 -69 callsubr
        </CharString>
        <CharString name="agrave">
          -51 -38 callgsubr
          392 54 252 -20 -99 callgsubr
          145 405 -33 callgsubr
        </CharString>
        <CharString name="amacron">
          -51 -38 callgsubr
          392 54 93 53 -99 callgsubr
          208 396 24 callsubr
        </CharString>
        <CharString name="ampersand">
          158 -10 60 -50 57 -41 -21 344 61 213 49 hstemhm
          50 89 -17 88 186 59 41 65 hintmask 1001110110000000
          304 662 rmoveto
          hintmask 1001101110000000
          -102 -80 -38 -102 -44 20 -45 33 -47 hvcurveto
          hintmask 1001110110000000
          -79 -47 -46 -62 -87 vvcurveto
          -124 102 -76 124 85 73 30 51 51 vhcurveto
          hintmask 0101110110000000
          46 -46 8 -25 rlineto
          21 hlineto
          -62 callgsubr
          hvcurveto
          hintmask 0011110110000000
          1 callgsubr
          hintmask 0101101110000000
          -79 7 -22 16 -32 23 -4 4 rlinecurve
          -30 28 rlineto
          21 39 11 45 51 vvcurveto
          40 4 22 1 7 vhcurveto
          77 16 -5 53 -122 -5 rlineto
          -91 hlineto
          -6 -58 68 -6 rlineto
          2 -9 7 -31 -17 vvcurveto
          -38 -5 -35 -11 -29 vhcurveto
          -135 124 -135 127 94 vvcurveto
          55 39 36 55 40 28 -14 -11 14 vhcurveto
          0 10 -41 -7 vvcurveto
          -7 -2 -39 0 vhcurveto
          55 -3 13 140 rlineto
          11 -29 -79 20 -50 hhcurveto
          hintmask 1001110110000000
          -93 -323 rmoveto
          63 -75 87 -76 80 -76 rrcurveto
          -40 -37 -55 -22 -72 hhcurveto
          -83 -55 64 83 57 22 47 50 38 hvcurveto
          endchar
        </CharString>
        <CharString name="aogonek">
          -51 -197 42 145 64 -59 62 -36 -21 449 54 hstemhm
          45 88 -54 63 153 64 -20 81 hintmask 1100101010000000
          hintmask 1001101100000000
          363 hmoveto
          -48 -42 -20 -26 -40 -36 callsubr
          -7 -16 -20 -6 -20 hhcurveto
          -39 -16 20 27 32 21 42 30 34 hvcurveto
          hintmask 1010101010000000
          51 -2 31 -3 0 vvcurveto
          hintmask 1100101010000000
          1 callgsubr
          hintmask 1010101010000000
          100 callgsubr
          124 vlineto
          153 -46 59 -119 -60 -61 -8 -16 -60 vhcurveto
          11 -136 58 3 rlineto
          41 vlineto
          7 42 rlineto
          12 25 37 8 33 hhcurveto
          63 31 -45 -93 hvcurveto
          -33 vlineto
          -160 -27 rlineto
          hintmask 1100110100000000
          -90 -15 -44 -46 -72 vvcurveto
          -78 56 -50 89 65 68 38 51 26 vhcurveto
          hintmask 1100110010000000
          -10 148 rmoveto
          -60 vlineto
          -65 -10 -56 -48 -67 hhcurveto
          -47 -26 29 50 35 23 25 40 7 hvcurveto
          endchar
        </CharString>
        <CharString name="approxequal">
          -7 94 82 -22 82 28 82 -22 82 hstemhm
          47 466 hintmask 01011000
          hintmask 10011000
          473 231 rmoveto
          0 -42 -55 -30 vhcurveto
          hintmask 01011000
          -54 -121 60 -70 hhcurveto
          30 callgsubr
          hintmask 10101000
          50 59 104 0 hvcurveto
          -40 203 rmoveto
          0 -42 -55 -30 vhcurveto
          -54 -121 60 -70 hhcurveto
          hintmask 01011000
          30 callgsubr
          50 59 104 0 hvcurveto
          endchar
        </CharString>
        <CharString name="aring">
          -51 -38 callgsubr
          392 54 77 38 95 38 hstemhm
          45 88 -54 63 16 49 83 47 2 81 hintmask 1001110010100000
          hintmask 0011110010100000
          363 hmoveto
          -62 callgsubr
          hvcurveto
          hintmask 0101110010100000
          1 callgsubr
          hintmask 1001110010100000
          -69 7 rlineto
          hintmask 0101110110100000
          -103 callsubr
          hintmask 1001111010100000
          -95 callsubr
          52 551 rmoveto
          hintmask 1001110011000000
          -51 callgsubr
        </CharString>
        <CharString name="aringacute">
          -51 -38 callgsubr
          392 54 42 32 81 32 hstemhm
          45 88 -54 63 26 42 71 40 18 81 hintmask 1001111010100000
          hintmask 0011111010100000
          363 hmoveto
          -62 callgsubr
          hvcurveto
          hintmask 0101111010100000
          1 callgsubr
          hintmask 1001111010100000
          -69 7 rlineto
          hintmask 0101110110100000
          -103 callsubr
          hintmask 1001111010100000
          -95 callsubr
          135 613 rmoveto
          hintmask 1001111011100000
          -206 -90 18 -43 79 33 rlineto
          17 6 119 29 0 vvcurveto
          -113 -58 27 callsubr
          endchar
        </CharString>
        <CharString name="asciicircum">
          -7 264 21 hstem
          280 615 rmoveto
          207 -302 63 44 -270 371 -270 -371 63 -44 rlineto
          endchar
        </CharString>
        <CharString name="asciitilde">
          -7 175 82 -22 82 hstemhm
          47 466 hintmask 01100000
          hintmask 10100000
          473 312 rmoveto
          0 -42 -55 -30 vhcurveto
          hintmask 01100000
          -54 -121 60 -70 hhcurveto
          30 callgsubr
          hintmask 10100000
          50 59 104 0 hvcurveto
          endchar
        </CharString>
        <CharString name="asterisk">
          -158 499 -20 29 -20 hstemhm
          180 49 hintmask 01100000
          hintmask 10100000
          43 499 rmoveto
          26 -35 48 28 4 2 29 12 24 9 rlinecurve
          12 -119 43 5 rlineto
          hintmask 01100000
          55 vlineto
          4 4 32 4 25 vhcurveto
          110 -49 17 40 -49 28 -4 2 -25 19 -19 16 rlinecurve
          98 70 -26 35 -49 -28 -4 -3 -29 -11 -23 -9 rlinecurve
          -12 119 -43 -5 rlineto
          -56 vlineto
          -5 -5 -31 -4 -25 vhcurveto
          -109 50 -17 -40 48 -27 rlineto
          hintmask 10100000
          48 -38 rlineto
          endchar
        </CharString>
        <CharString name="at">
          345 -213 62 141 64 -37 -21 453 54 115 49 hstemhm
          40 91 144 88 -54 63 197 81 141 81 hintmask 1101111011000000
          hintmask 1011110111000000
          610 -4 rmoveto
          170 14 92 142 135 vvcurveto
          240 -162 140 -249 -308 -113 -220 -215 -207 90 -238 336 52 153 71 0 vhcurveto
          -16 31 rlineto
          0 -154 -40 -35 vhcurveto
          -245 -1 -90 163 221 vvcurveto
          126 45 260 285 206 124 -135 -196 -95 -34 -125 -95 -21 vhcurveto
          0 -12 71 20 vvcurveto
          154 vlineto
          134 -31 78 -134 -60 -61 -8 -16 -60 vhcurveto
          11 -135 58 3 rlineto
          36 vlineto
          7 7 30 2 10 vhcurveto
          8 16 31 11 46 hhcurveto
          75 19 -63 -75 hvcurveto
          -33 vlineto
          -33 -5 -94 -13 -52 -13 rrcurveto
          hintmask 1101111011000000
          -72 -18 -43 -36 -70 vvcurveto
          -82 53 -51 82 73 70 41 48 26 vhcurveto
          hintmask 1011111011000000
          13 -69 rlineto
          hintmask 1101111011000000
          -156 44 rmoveto
          -47 -26 27 47 28 12 31 51 13 hvcurveto
          56 14 63 9 24 4 rrcurveto
          -60 vlineto
          -65 -10 -56 -48 -67 hhcurveto
          endchar
        </CharString>
        <CharString name="atilde">
          -51 -38 callgsubr
          392 54 101 81 callsubr
          45 88 -54 63 197 81 hintmask 1001010110000000
          hintmask 0011010110000000
          363 hmoveto
          -62 callgsubr
          hvcurveto
          hintmask 0101010110000000
          1 callgsubr
          hintmask 1001010110000000
          -69 7 rlineto
          hintmask 0101010110000000
          -103 callsubr
          hintmask 1001101010000000
          -95 callsubr
          179 523 117 callsubr
          -75 41 -40 hhcurveto
          hintmask 1001010110000000
          -40 -42 -101 0 hvcurveto
          57 callsubr
          hintmask 1001100110000000
          40 43 98 0 hvcurveto
          endchar
        </CharString>
        <CharString name="b">
          -13 -10 56 396 61 188 -23 callsubr
          96 81 245 92 hintmask 1101010110000000
          hintmask 1100100110000000
          10 707 rmoveto
          hintmask 1110000110000000
          -59 callsubr
          -478 vlineto
          -20 -8 -91 0 vhcurveto
          -17 46 68 -19 82 hhcurveto
          143 87 123 143 138 -65 109 -133 -69 -45 -38 -38 -25 hvcurveto
          158 vlineto
          hintmask 1101010110000000
          -84 callgsubr
          hintmask 1101001110000000
          286 -318 rmoveto
          95 26 -89 -99 -110 -36 -98 -108 -35 -32 5 7 -27 hvcurveto
          -2 13 -5 52 44 vvcurveto
          107 vlineto
          83 40 85 84 vhcurveto
          endchar
        </CharString>
        <CharString name="b.sups">
          -211 444 48 8 -20 221 56 -44 -20 208 10 hstemhm
          54 71 127 80 hintmask 01101110
          1 876 rmoveto
          47 -11 rlineto
          0 6 -38 -12 vvcurveto
          hintmask 10101110
          -272 vlineto
          -12 -6 -65 0 vhcurveto
          -14 46 44 -8 44 hhcurveto
          96 54 67 94 85 -36 67 -84 -42 -26 -19 -25 -19 hvcurveto
          hintmask 01011110
          84 105 callsubr
          -45 5 0 hvcurveto
          183 -215 rmoveto
          hintmask 10101110
          52 11 -49 -52 -59 -16 -49 -60 -16 -17 3 5 -15 hvcurveto
          -1 12 -2 27 22 vvcurveto
          51 vlineto
          46 1 19 43 44 hhcurveto
          endchar
        </CharString>
        <CharString name="backslash">
          -169 -67 840 hstem
          7 374 vstem
          381 -47 rmoveto
          -311 820 -63 -20 310 -820 rlineto
          endchar
        </CharString>
        <CharString name="bar">
          113 callsubr
          -122 rmoveto
          874 vlineto
          -65 8 rlineto
          -873 vlineto
          endchar
        </CharString>
        <CharString name="braceleft">
          -295 -121 39 2 -21 407 29 376 55 -43 43 -24 24 hstemhm
          37 83 -13 60 -47 56 hintmask 0111000100000000
          107 261 rmoveto
          -120 -30 -242 0 vhcurveto
          hintmask 1011000100000000
          20 -20 rlineto
          69 93 -4 0 hvcurveto
          3 43 -87 12 rlineto
          0 -8 90 20 60 9 124 60 vvcurveto
          hintmask 0111000010000000
          -20 18 -36 14 0 vvcurveto
          9 vlineto
          0 36 14 20 18 vhcurveto
          hintmask 0111000100000000
          60 -9 124 60 vvcurveto
          20 8 90 0 vhcurveto
          hintmask 0110100100000000
          87 12 rlineto
          hintmask 0111000100000000
          -3 43 rlineto
          0 -93 -4 -69 vhcurveto
          hintmask 0110010100000000
          -20 -20 rlineto
          0 30 -242 -120 vvcurveto
          hintmask 0111001000000000
          -20 -10 -48 -25 -10 hhcurveto
          -4 -29 rlineto
          hintmask 0111000100000000
          14 48 -25 -20 10 hvcurveto
          endchar
        </CharString>
        <CharString name="braceright">
          -295 -80 -21 407 29 376 51 -39 43 -24 20 hstemhm
          105 60 -13 83 hintmask 11001100
          165 380 rmoveto
          120 30 242 0 vhcurveto
          -20 20 rlineto
          hintmask 11010100
          -69 -93 -20 callsubr
          -3 -43 rlineto
          hintmask 11100100
          87 -12 rlineto
          0 8 -90 -20 -60 -9 -124 -60 vvcurveto
          hintmask 11001010
          20 -18 36 -14 0 vvcurveto
          -9 vlineto
          0 -36 -14 -20 -18 vhcurveto
          hintmask 11001100
          -60 9 -124 -60 vvcurveto
          -20 -8 -90 0 vhcurveto
          -87 -12 3 -43 rlineto
          0 93 4 69 vhcurveto
          20 20 rlineto
          0 -30 242 120 vvcurveto
          hintmask 11001010
          20 10 48 25 10 hhcurveto
          4 29 rlineto
          hintmask 11001100
          -14 -48 25 20 -10 hvcurveto
          endchar
        </CharString>
        <CharString name="bracketleft">
          -302 -102 20 793 55 -43 43 -23 23 hstemhm
          85 72 hintmask 11001000
          85 90 rmoveto
          -20 -10 -172 0 vhcurveto
          19 -19 rlineto
          69 89 -4 0 hvcurveto
          3 43 -84 12 rlineto
          0 -14 60 50 vvcurveto
          561 vlineto
          50 14 60 0 vhcurveto
          hintmask 10101000
          84 12 rlineto
          hintmask 11001000
          -3 43 rlineto
          0 -89 -4 -69 vhcurveto
          hintmask 10011000
          -19 -19 rlineto
          0 10 -172 -20 vvcurveto
          endchar
        </CharString>
        <CharString name="bracketright">
          -302 -81 -21 813 51 -39 43 -23 19 -19 23 hstemhm
          108 72 hintmask 10010100
          180 551 rmoveto
          20 10 172 0 vhcurveto
          -19 19 rlineto
          hintmask 10001100
          -69 -89 -20 callsubr
          hintmask 10100100
          -3 -43 rlineto
          hintmask 11000100
          84 -12 rlineto
          0 14 -60 -50 vvcurveto
          -561 vlineto
          -50 -14 -60 0 vhcurveto
          -84 -12 3 -43 rlineto
          0 89 4 69 vhcurveto
          19 19 rlineto
          0 -10 172 20 vvcurveto
          endchar
        </CharString>
        <CharString name="breve">
          587 56 hstem
          41 94 callgsubr
          vstem
          263 727 rmoveto
          -81 callgsubr
        </CharString>
        <CharString name="breve.cap">
          547 56 hstem
          41 94 callgsubr
          vstem
          263 687 rmoveto
          -81 callgsubr
        </CharString>
        <CharString name="brokenbar">
          113 callsubr
          392 rmoveto
          360 vlineto
          -65 8 rlineto
          -360 vlineto
          -188 vmoveto
          -325 vlineto
          65 -9 rlineto
          327 vlineto
          endchar
        </CharString>
        <CharString name="bullet">
          -337 167 173 hstem
          35 160 vstem
          115 340 rmoveto
          -51 -29 -36 -51 -51 29 -35 51 51 29 35 51 55 -30 32 -50 hvcurveto
          endchar
        </CharString>
        <CharString name="c">
          88 callgsubr
          hstem
          40 94 225 63 vstem
          -92 callsubr
          endchar
        </CharString>
        <CharString name="c.sups">
          -270 442 51 221 43 0 -20 hstemhm
          24 81 117 49 hintmask 11011000
          171 757 rmoveto
          -94 -53 -61 -96 -99 51 -59 98 50 41 23 16 18 hvcurveto
          -20 33 rlineto
          0 -33 -21 -46 -55 -23 42 65 69 20 45 50 15 15 -5 -12 14 vhcurveto
          hintmask 10111000
          2 -8 1 -8 1 -6 -1 -29 rcurveline
          46 -1 8 94 rlineto
          hintmask 11011000
          5 -16 -42 13 -47 hhcurveto
          endchar
        </CharString>
        <CharString name="cacute">
          88 callgsubr
          109 callgsubr
          225 63 vstem
          -92 callsubr
          89 252 -69 callsubr
        </CharString>
        <CharString name="caron">
          765 -20 hstem
          14 332 vstem
          47 765 -18 callgsubr
        </CharString>
        <CharString name="caron.cap">
          536 146 hstem
          6 348 vstem
          331 682 -59 callgsubr
        </CharString>
        <CharString name="ccaron">
          88 callgsubr
          110 callsubr
          225 63 vstem
          -92 callsubr
          -130 262 -18 callgsubr
        </CharString>
        <CharString name="ccedilla">
          -101 34 callgsubr
          -14 -21 85 64 391 57 hstemhm
          40 94 107 39 37 65 -23 63 hintmask 1010111110000000
          270 503 rmoveto
          -153 -77 -104 -153 -145 68 -100 137 -10 hvcurveto
          hintmask 1001111110000000
          -7 -85 11 -10 rlineto
          hintmask 1010111110000000
          -31 callgsubr
          hintmask 0110111110000000
          -13 -35 rlineto
          hintmask 1010111110000000
          -18 callsubr
          10 50 rlineto
          91 7 56 46 0 vvcurveto
          -28 47 rlineto
          0 -62 -36 -78 -100 -36 91 100 100 36 100 100 vhcurveto
          hintmask 1010111101000000
          29 24 -6 -24 29 hvcurveto
          4 -14 3 -13 -7 vvcurveto
          -36 vlineto
          58 -3 10 125 rlineto
          hintmask 1010111110000000
          20 -60 -38 15 -59 hhcurveto
          endchar
        </CharString>
        <CharString name="ccircumflex">
          88 callgsubr
          110 callsubr
          225 63 vstem
          -92 callsubr
          3 262 -86 callsubr
        </CharString>
        <CharString name="cdotaccent">
          88 callgsubr
          88 129 hstemhm
          40 94 80 118 27 63 hintmask 11110100
          -92 callsubr
          hintmask 11111100
          3 217 -87 callsubr
          endchar
        </CharString>
        <CharString name="cedilla">
          34 callgsubr
          -44 113 -83 -21 hstemhm
          230 65 hintmask 10100100
          hintmask 10010100
          208 10 rmoveto
          -48 hlineto
          hintmask 10001100
          -9 -104 11 -10 rlineto
          hintmask 10100100
          -31 callgsubr
          hintmask 01100100
          -13 -35 rlineto
          hintmask 10100100
          -18 callsubr
          endchar
        </CharString>
        <CharString name="cent">
          -84 522 57 -34 -20 hstemhm
          40 94 101 35 -22 34 -22 34 65 63 hintmask 01101010
          hintmask 01110010
          268 -42 rmoveto
          4 109 rlineto
          102 1 64 53 0 vvcurveto
          -28 47 rlineto
          hintmask 10101010
          0 -60 -35 -75 -1 vhcurveto
          15 390 21 -3 19 -8 22 -18 rlinecurve
          4 -14 3 -13 -7 vvcurveto
          -36 vlineto
          58 -3 rlineto
          hintmask 01101010
          10 125 rlineto
          hintmask 10100110
          -52 17 -36 14 -46 3 4 107 rcurveline
          -34 3 -5 -109 rlineto
          -145 -5 -73 -103 -149 vvcurveto
          hintmask 10110010
          -142 65 -99 132 -14 vhcurveto
          -4 -107 rlineto
          -99 362 rmoveto
          95 32 95 90 9 vhcurveto
          hintmask 01101010
          -16 -387 rlineto
          hintmask 10110010
          -77 16 -29 83 89 vvcurveto
          endchar
        </CharString>
        <CharString name="circumflex">
          765 -20 hstem
          14 332 vstem
          180 765 -86 callsubr
        </CharString>
        <CharString name="circumflex.cap">
          536 146 hstem
          6 348 vstem
          180 682 -55 callgsubr
        </CharString>
        <CharString name="colon">
          -364 -10 129 224 129 hstem
          40 118 vstem
          99 472 -87 callsubr
          -353 vmoveto
          -38 -21 -27 -38 -38 21 -26 38 -76 callgsubr
          endchar
        </CharString>
        <CharString name="comma">
          122 callgsubr
          hstemhm
          105 70 hintmask 10110000
          105 -10 124 callsubr
          hintmask 11010000
          83 callsubr
          hintmask 10110000
          -36 19 -31 36 -3 vhcurveto
          endchar
        </CharString>
        <CharString name="copyright">
          278 -115 44 100 47 347 47 101 44 hstemhm
          57 44 124 83 206 44 -36 43 178 45 hintmask 1111111010000000
          hintmask 1111110110000000
          567 49 rmoveto
          -3 103 -42 -1 rlineto
          0 0 -25 -1 -8 vhcurveto
          -5 -4 -16 -5 -11 vhcurveto
          -6 -25 -32 -4 -24 hhcurveto
          -82 -41 77 97 97 41 76 82 hvcurveto
          hintmask 1111111010000000
          23 29 -5 -6 24 hvcurveto
          3 -9 4 -14 -5 vvcurveto
          -32 vlineto
          41 -3 7 101 rlineto
          9 -40 -40 11 -52 hhcurveto
          -136 -69 -90 -131 -131 69 -89 136 hvcurveto
          hintmask 1111110110000000
          52 45 11 9 40 hvcurveto
          hintmask 1111111010000000
          221 201 -13 callgsubr
          endchar
        </CharString>
        <CharString name="d">
          -4 -38 callgsubr
          385 61 188 -23 callsubr
          41 92 243 81 hintmask 1001010101100000
          536 54 rmoveto
          hintmask 0101010101100000
          100 callgsubr
          418 vlineto
          -99 callsubr
          -84 -20 callsubr
          hintmask 1001010011100000
          -5 -53 rlineto
          hintmask 1001001001100000
          88 -16 rlineto
          hintmask 1001100001100000
          29 callsubr
          hintmask 0011010101100000
          -62 callgsubr
          hvcurveto
          hintmask 0101010101100000
          77 callsubr
          hintmask 1001010101100000
          36 callsubr
        </CharString>
        <CharString name="d.sups">
          -202 444 56 -50 43 214 50 144 10 hstemhm
          23 81 126 71 hintmask 01111100
          346 489 rmoveto
          -39 39 callgsubr
          236 105 callsubr
          -49 5 0 hvcurveto
          -4 -40 50 -11 rlineto
          0 6 -38 -12 vvcurveto
          -66 vlineto
          6 -24 -18 2 -20 hhcurveto
          -91 -54 -59 -100 hvcurveto
          hintmask 10111100
          -97 45 -57 76 37 36 20 33 20 vhcurveto
          hintmask 01111100
          6 -47 rlineto
          69 30 -3 0 hvcurveto
          hintmask 10111100
          -112 139 rmoveto
          -55 -2 -23 -31 -40 hhcurveto
          -40 -21 36 66 71 23 34 48 18 17 -4 -9 20 hvcurveto
          endchar
        </CharString>
        <CharString name="dagger">
          -63 -79 -21 594 122 callsubr
          hintmask 10111000
          277 514 rmoveto
          65 callgsubr
          -91 vmoveto
          -50 -33 -455 114 callsubr
          487 20 vvcurveto
          hintmask 11011000
          -70 71 rmoveto
          hintmask 10111000
          -63 4 -105 11 0 vvcurveto
          -18 -19 rlineto
          hintmask 11011000
          98 callgsubr
          hmoveto
          63 callsubr
          endchar
        </CharString>
        <CharString name="daggerdbl">
          -63 -79 -21 413 110 71 122 callsubr
          hintmask 11011100
          227 223 rmoveto
          -50 -33 -255 114 callsubr
          287 20 vvcurveto
          291 vmoveto
          65 callgsubr
          hintmask 00100100
          70 -71 rmoveto
          63 callsubr
          -90 hmoveto
          hintmask 00010100
          -63 4 -105 11 0 vvcurveto
          -18 -19 rlineto
          hintmask 01100100
          98 callgsubr
          -200 rmoveto
          63 -4 65 -11 0 vvcurveto
          18 19 -10 60 -6 6 rlineto
          0 -105 -18 -25 -1 vhcurveto
          -90 hmoveto
          -63 4 -65 11 0 vvcurveto
          -18 -19 10 -60 6 -6 rlineto
          0 105 18 25 1 vhcurveto
          70 70 rmoveto
          110 -50 -110 vlineto
          endchar
        </CharString>
        <CharString name="dcaron">
          49 -38 callgsubr
          385 61 188 -23 callsubr
          41 92 243 81 78 64 hintmask 1001010101110000
          527 756 rmoveto
          0 8 4 callsubr
          -70 -702 rmoveto
          hintmask 0101010101110000
          100 callgsubr
          418 vlineto
          -99 callsubr
          -84 -20 callsubr
          hintmask 1001010011110000
          -5 -53 rlineto
          hintmask 1001001001110000
          88 -16 rlineto
          hintmask 1001100001110000
          29 callsubr
          hintmask 0011010101110000
          -62 callgsubr
          hvcurveto
          hintmask 0101010101110000
          77 callsubr
          hintmask 1001010101110000
          36 callsubr
        </CharString>
        <CharString name="dcroat">
          -4 -38 callgsubr
          385 61 60 44 84 -23 callsubr
          41 92 243 81 hintmask 1001101010110000
          536 54 rmoveto
          hintmask 0101101010110000
          100 callgsubr
          396 93 44 -93 vlineto
          1 53 6 78 0 vvcurveto
          17 callgsubr
          -84 -20 callsubr
          hintmask 1001101001110000
          -5 -53 rlineto
          hintmask 1001100100110000
          88 -16 rlineto
          hintmask 1001110000110000
          -86 callgsubr
          -8 -110 -44 110 -84 vlineto
          19 -53 -30 5 -42 hhcurveto
          -130 -80 -98 -158 111 callgsubr
          53 71 44 46 20 hvcurveto
          14 -80 rlineto
          hintmask 0011101010110000
          -62 callgsubr
          hvcurveto
          hintmask 0101101010110000
          77 callsubr
          hintmask 1001101010110000
          36 callsubr
        </CharString>
        <CharString name="degree">
          368 51 196 51 hstem
          30 77 147 77 vstem
          331 517 rmoveto
          92 -58 57 -93 -92 -58 -57 -92 -92 58 -57 92 93 58 57 92 vhcurveto
          -224 hmoveto
          52 21 46 53 52 21 -46 -52 -52 -21 -46 -52 -53 -21 46 52 vhcurveto
          endchar
        </CharString>
        <CharString name="dieresis">
          594 119 hstem
          8 29 callgsubr
          vstem
          298 713 rmoveto
          -98 callsubr
        </CharString>
        <CharString name="dieresis.cap">
          554 119 hstem
          8 29 callgsubr
          vstem
          298 673 rmoveto
          -98 callsubr
        </CharString>
        <CharString name="divide">
          -7 6 129 78 68 78 129 hstem
          228 118 cntrmask 11100000
          52 279 rmoveto
          118 callgsubr
          -220 204 -87 callsubr
          -353 vmoveto
          -38 -21 -27 -38 -38 21 -26 38 -76 callgsubr
          endchar
        </CharString>
        <CharString name="dollar">
          -46 -71 -21 24 -21 79 58 445 -20 136 52 95 -20 23 -20 hstemhm
          54 93 -90 68 102 35 -25 33 -20 33 -24 34 80 98 hintmask 0111101100100100
          hintmask 1011101101000100
          261 -92 rmoveto
          3 82 rlineto
          115 4 92 60 114 vvcurveto
          107 -85 46 -78 43 vhcurveto
          hintmask 0111101100010100
          -29 15 10 228 22 -3 20 -5 26 -10 rlinecurve
          6 -21 7 -19 -9 vvcurveto
          -1 -47 54 -6 15 144 rlineto
          hintmask 0111110100001100
          -47 12 -52 12 -48 4 4 97 rcurveline
          hintmask 0111101100001100
          -34 3 -4 -98 rlineto
          -2 hlineto
          -116 -85 -59 -109 -101 84 -51 74 -35 hvcurveto
          hintmask 0111101010100100
          30 -14 -10 -244 -38 3 -32 10 -26 10 rlinecurve
          -4 20 -6 27 11 vvcurveto
          1 54 -62 6 -15 -150 rlineto
          hintmask 0111101011000100
          0 69 -42 110 -6 vhcurveto
          -3 -80 rlineto
          147 247 rmoveto
          -67 -42 -38 -65 -5 vhcurveto
          hintmask 0111101100100100
          9 227 rlineto
          hintmask 0111101011000100
          56 -29 42 -33 -55 vvcurveto
          hintmask 0111101100010100
          -226 352 rmoveto
          65 47 34 58 vhcurveto
          3 hlineto
          -9 -213 rlineto
          -55 30 -44 31 53 vvcurveto
          endchar
        </CharString>
        <CharString name="dotaccent">
          591 79 callgsubr
          720 -87 callsubr
          endchar
        </CharString>
        <CharString name="dotaccent.cap">
          551 79 callgsubr
          680 -87 callsubr
          endchar
        </CharString>
        <CharString name="dotbelowcomb">
          -200 79 callgsubr
          -71 -87 callsubr
          endchar
        </CharString>
        <CharString name="dotlessi">
          -56 callgsubr
          hstemhm
          122 81 hintmask 10001010
          -71 callgsubr
          hintmask 10000110
          -5 -53 rlineto
          hintmask 10010010
          76 -16 rlineto
          hintmask 01100010
          -95 callgsubr
          49 -5 0 vhcurveto
          endchar
        </CharString>
        <CharString name="dotlessj">
          -289 78 callgsubr
          hstemhm
          111 81 hintmask 10011000
          hintmask 10101000
          25 445 rmoveto
          hintmask 11001000
          -59 callsubr
          -332 -4 callsubr
          333 vlineto
          hintmask 10011000
          -84 callgsubr
          endchar
        </CharString>
        <CharString name="e">
          -6 callsubr
          hstem
          40 94 224 92 vstem
          -106 callgsubr
          endchar
        </CharString>
        <CharString name="e.sups">
          -253 442 51 96 42 84 42 hstem
          24 81 107 80 vstem
          167 757 rmoveto
          -90 -53 -61 -98 -96 53 -60 94 58 41 24 17 18 hvcurveto
          -20 32 rlineto
          0 -34 -22 -49 -51 -25 35 61 -4 vhcurveto
          175 hlineto
          12 22 rlineto
          90 3 -41 56 -87 hhcurveto
          -5 -42 rmoveto
          34 16 -27 -45 -2 -1 -6 0 hvcurveto
          -106 -8 rlineto
          48 3 13 40 41 hhcurveto
          endchar
        </CharString>
        <CharString name="eacute">
          -6 callsubr
          109 callgsubr
          224 92 vstem
          -106 callgsubr
          93 304 -69 callsubr
        </CharString>
        <CharString name="ebreve">
          -6 callsubr
          84 56 hstemhm
          40 94 -12 94 callgsubr
          -42 92 hintmask 11111010
          hintmask 11111001
          -106 callgsubr
          hintmask 11110110
          90 276 rmoveto
          -81 callgsubr
        </CharString>
        <CharString name="ecaron">
          -6 callsubr
          110 callsubr
          224 92 vstem
          -106 callgsubr
          -126 314 -18 callgsubr
        </CharString>
        <CharString name="ecircumflex">
          -6 callsubr
          110 callsubr
          224 92 vstem
          -106 callgsubr
          7 314 -86 callsubr
        </CharString>
        <CharString name="edieresis">
          -6 callsubr
          91 119 hstemhm
          40 94 -45 29 callgsubr
          -75 92 hintmask 11111001
          -106 callgsubr
          hintmask 11110110
          125 262 rmoveto
          -98 callsubr
        </CharString>
        <CharString name="edotaccent">
          -6 callsubr
          88 129 hstem
          40 94 68 118 38 92 vstem
          -106 callgsubr
          7 269 -87 callsubr
          endchar
        </CharString>
        <CharString name="egrave">
          -6 callsubr
          109 callgsubr
          224 92 vstem
          -106 callgsubr
          100 154 -33 callgsubr
        </CharString>
        <CharString name="eight">
          -72 callsubr
        </CharString>
        <CharString name="eight.dnom">
          -209 -6 64 callgsubr
          328 -50 callgsubr
        </CharString>
        <CharString name="eight.numr">
          -229 294 40 176 -20 44 -20 162 115 callgsubr
          hintmask 10111001
          hintmask 11010101
          39 618 rmoveto
          -54 33 -31 39 -23 vhcurveto
          hintmask 11011001
          92 callsubr
          vhcurveto
          hintmask 10111001
          57 -40 33 -45 24 vhcurveto
          hintmask 10111010
          33 22 39 34 48 vvcurveto
          64 -64 35 -66 vhcurveto
          hintmask 11010101
          -68 -62 -36 -62 hvcurveto
          hintmask 10111001
          52 callgsubr
          hintmask 10110110
          46 callgsubr
        </CharString>
        <CharString name="eight.osf">
          -72 callsubr
        </CharString>
        <CharString name="eight.sinf">
          -209 -106 64 callgsubr
          228 -50 callgsubr
        </CharString>
        <CharString name="eight.sups">
          -229 444 40 342 115 callgsubr
          hintmask 11100100
          hintmask 11010100
          39 768 rmoveto
          -54 33 -31 39 -23 vhcurveto
          hintmask 11100100
          92 callsubr
          57 -40 33 -45 24 vhcurveto
          hintmask 11101000
          33 22 39 34 48 vvcurveto
          64 -64 35 -66 vhcurveto
          hintmask 11010100
          -68 -62 -36 -62 hvcurveto
          hintmask 11100100
          52 callgsubr
          hintmask 11011000
          46 callgsubr
        </CharString>
        <CharString name="eight.tf">
          -71 callsubr
        </CharString>
        <CharString name="eight.tosf">
          -71 callsubr
        </CharString>
        <CharString name="ellipsis">
          36 121 callsubr
          76 122 cntrmask 01110000
          24 callgsubr
          198 hmoveto
          -39 -22 -28 -39 -39 22 -27 39 39 22 27 39 42 -23 25 -38 hvcurveto
          endchar
        </CharString>
        <CharString name="emacron">
          -6 callsubr
          93 53 hstem
          40 94 224 92 vstem
          -106 callgsubr
          163 145 24 callsubr
        </CharString>
        <CharString name="emdash">
          439 216 75 hstem
          0 1006 vstem
          2 216 rmoveto
          999 hlineto
          5 75 rlineto
          -1006 hlineto
          endchar
        </CharString>
        <CharString name="endash">
          -63 216 75 hstem
          0 504 vstem
          2 216 108 callsubr
        </CharString>
        <CharString name="eng">
          27 -214 -21 235 60 callsubr
          hstemhm
          122 81 231 81 hintmask 1100100110000000
          hintmask 1101000110000000
          188 476 rmoveto
          -39 callsubr
          hintmask 1100001110000000
          -5 -53 rlineto
          hintmask 1100010110000000
          76 -16 rlineto
          hintmask 1011000110000000
          -86 callgsubr
          -221 vlineto
          -2 -23 -8 -48 0 vvcurveto
          125 callgsubr
          49 -5 0 vhcurveto
          hintmask 1100100110000000
          7 59 -78 7 rlineto
          hintmask 1010100110000000
          -27 callgsubr
          hintmask 1100100110000000
          107 vlineto
          98 1 48 70 79 hhcurveto
          84 19 -82 -84 hvcurveto
          -255 -4 callsubr
          286 vlineto
          12 callsubr
          endchar
        </CharString>
        <CharString name="eogonek">
          -89 -197 42 145 65 -39 -21 242 58 156 52 hstemhm
          40 94 127 65 32 92 hintmask 11011111
          258 503 rmoveto
          -147 -71 -108 -150 -151 79 -104 151 19 18 2 3 16 hvcurveto
          hintmask 10111111
          -44 -39 -18 -25 -39 -36 callsubr
          -7 -16 -20 -6 -20 hhcurveto
          -30 -24 13 34 42 19 52 102 64 hvcurveto
          hintmask 11011111
          -28 46 rlineto
          0 -64 -41 -85 -90 -43 92 90 -3 vhcurveto
          299 hlineto
          17 33 rlineto
          140 -52 93 -140 vhcurveto
          -4 -52 rmoveto
          71 33 -56 -71 -5 -1 -15 0 hvcurveto
          -222 -17 rlineto
          83 7 30 81 82 hhcurveto
          endchar
        </CharString>
        <CharString name="equal">
          -7 119 68 122 68 hstem
          52 455 vstem
          507 312 rmoveto
          66 -455 -71 vlineto
          -122 vmoveto
          118 callgsubr
          endchar
        </CharString>
        <CharString name="estimated">
          230 -12 20 303 18 302 20 hstem
          40 135 468 134 vstem
          180 311 rmoveto
          597 8 hlineto
          184 -165 148 -203 -203 -166 -148 -184 -183 166 -148 203 118 107 51 78 67 vhcurveto
          -54 hlineto
          -67 -57 -85 -42 -95 hhcurveto
          -89 -81 37 60 -56 hvcurveto
          -5 6 -4 7 8 vvcurveto
          181 vlineto
          3 2 1 3 vhcurveto
          463 205 rmoveto
          -182 vlineto
          -3 -2 -2 -3 vhcurveto
          -458 hlineto
          -3 -2 2 3 hvcurveto
          178 vlineto
          9 4 8 6 6 vhcurveto
          59 57 79 37 89 hhcurveto
          87 79 -36 -57 57 hvcurveto
          6 -6 4 -7 -9 vvcurveto
          endchar
        </CharString>
        <CharString name="eth">
          -24 -10 57 379 57 282 -20 hstem
          41 95 271 94 vstem
          468 697 rmoveto
          -22 37 -115 -60 -40 38 -48 31 -56 22 rlinecurve
          -19 -41 43 -22 36 -26 30 -30 rlinecurve
          -118 -61 22 -35 124 64 rlineto
          81 -103 21 -135 -125 vvcurveto
          -106 -34 -98 -103 -98 -36 91 98 98 38 92 93 16 24 -2 -2 13 vhcurveto
          8 45 rlineto
          7 -18 -23 9 -29 hhcurveto
          -130 -87 -103 -144 -144 85 -102 144 152 79 106 156 144 -45 143 -94 104 hvcurveto
          endchar
        </CharString>
        <CharString name="etilde">
          -6 callsubr
          101 81 callsubr
          40 94 224 92 hintmask 11101110
          -106 callgsubr
          hintmask 11110110
          134 272 -9 callsubr
          hintmask 11101110
          -40 -75 -36 callgsubr
          hintmask 11110110
          19 callsubr
        </CharString>
        <CharString name="exclam">
          -338 -10 129 594 7 0 -20 hstemhm
          70 118 -100 75 -4 7 hintmask 10101000
          hintmask 10110000
          129 -10 rmoveto
          38 21 27 38 38 -21 26 -38 -38 -21 -26 -38 -41 22 -24 37 hvcurveto
          hintmask 10101000
          37 233 rmoveto
          0 -3 55 30 vvcurveto
          157 25 237 0 vhcurveto
          -19 18 rlineto
          hintmask 11001000
          -90 -7 9 -427 rlineto
          -30 -1 -36 0 vhcurveto
          hintmask 10100100
          39 27 -2 -1 6 hvcurveto
          endchar
        </CharString>
        <CharString name="exclamdown">
          -338 -206 -21 601 129 hstemhm
          41 118 -96 7 -4 75 hintmask 11001000
          hintmask 11100000
          100 503 -87 callsubr
          hintmask 11001000
          -37 -233 rmoveto
          0 3 -55 -30 vvcurveto
          -157 -25 -237 0 vhcurveto
          19 -18 90 7 -9 427 rlineto
          30 1 36 0 vhcurveto
          hintmask 11010000
          -39 -27 2 1 -6 hvcurveto
          endchar
        </CharString>
        <CharString name="f">
          -216 -65 callsubr
          445 54 223 53 59 callgsubr
          134 58 -57 callgsubr
          hintmask 10111100
          -27 callgsubr
          273 135 103 callsubr
          -140 72 -1 callsubr
        </CharString>
        <CharString name="f.f">
          -216 -65 callsubr
          445 54 203 53 59 callgsubr
          134 58 hintmask 10111000
          298 750 rmoveto
          74 callsubr
          -66 -40 callgsubr
          hintmask 10111100
          -27 callgsubr
          273 235 103 callsubr
          -240 52 -1 callsubr
        </CharString>
        <CharString name="f.l">
          -253 -65 callsubr
          445 54 217 59 59 callgsubr
          -57 callgsubr
          hintmask 10111000
          -27 callgsubr
          273 135 103 callsubr
          -140 72 hlineto
          90 4 55 81 35 39 -14 -29 101 vhcurveto
          13 75 rlineto
          0 -97 27 -81 vhcurveto
          endchar
        </CharString>
        <CharString name="f.sups">
          -338 450 43 218 40 7 -20 139 43 hstemhm
          72 71 71 44 hintmask 10111100
          183 920 rmoveto
          -70 -41 -46 -66 hvcurveto
          -50 vlineto
          hintmask 11011100
          -12 -6 -13 -2 -18 -6 2 -33 rcurveline
          41 -168 hlineto
          -12 -6 -38 0 vhcurveto
          -40 26 callgsubr
          45 80 callsubr
          -56 117 callgsubr
          150 72 vlineto
          4 40 rlineto
          -76 46 hlineto
          51 4 29 42 7 8 -1 -2 5 vhcurveto
          2 -10 3 -13 -6 vvcurveto
          -25 vlineto
          40 -2 8 94 rlineto
          hintmask 10111100
          0 -44 8 -35 vhcurveto
          endchar
        </CharString>
        <CharString name="f.t">
          -216 -65 callsubr
          445 54 223 53 59 callgsubr
          134 58 -57 callgsubr
          hintmask 10111100
          -27 callgsubr
          273 215 103 callsubr
          -220 72 -1 callsubr
        </CharString>
        <CharString name="fi">
          41 -65 callsubr
          445 54 -18 18 97 129 -3 53 -10 53 callsubr
          104 58 36 118 -90 81 hintmask 1010010100100000
          298 770 rmoveto
          74 callsubr
          -86 vlineto
          -23 -10 -28 -10 -29 -9 3 -42 rcurveline
          77 -303 hlineto
          hintmask 0110010100100000
          -21 callgsubr
          38 callsubr
          hintmask 1010010100100000
          80 69 -5 0 hvcurveto
          1 callgsubr
          hintmask 0110010100100000
          -98 7 rlineto
          hintmask 1010010100100000
          -27 callgsubr
          273 146 vlineto
          23 26 -5 -6 21 hvcurveto
          -86 callgsubr
          -216 vlineto
          -21 callgsubr
          -76 -16 rlineto
          hintmask 0110010100100000
          -67 callsubr
          0 91 -54 callgsubr
          7 59 rlineto
          hintmask 1010010100100000
          16 callgsubr
          hintmask 0110010100100000
          156 vlineto
          hintmask 1001010100100000
          50 7 103 0 vhcurveto
          -19 18 rlineto
          -293 hlineto
          -2 72 rlineto
          91 7 60 81 vhcurveto
          hintmask 1010010110100000
          3 hlineto
          7 -21 6 -22 -10 vvcurveto
          -36 vlineto
          53 -3 11 135 rlineto
          0 -44 10 -29 vhcurveto
          162 -50 rmoveto
          -38 -21 -27 -38 hvcurveto
          hintmask 1010001110100000
          -38 21 -26 38 vhcurveto
          hintmask 1010010100100000
          38 21 26 38 hvcurveto
          hintmask 1010100101000000
          102 callgsubr
        </CharString>
        <CharString name="five">
          -105 -84 87 callsubr
          hstem
          61 72 199 95 vstem
          157 652 -13 callsubr
          -6 67 rlineto
          endchar
        </CharString>
        <CharString name="five.dnom">
          -245 183 53 108 67 hstem
          52 54 104 77 vstem
          113 411 45 callsubr
          -46 115 callsubr
          61 41 callgsubr
        </CharString>
        <CharString name="five.numr">
          -264 477 49 105 73 -17 11 hstemhm
          46 54 100 77 hintmask 11011000
          107 698 rmoveto
          hintmask 10111000
          12 callgsubr
          hintmask 11011000
          72 callgsubr
        </CharString>
        <CharString name="five.osf">
          -105 -208 87 callsubr
          10 -20 hstemhm
          61 72 199 95 hintmask 11101100
          157 528 -13 callsubr
          hintmask 11011100
          -6 67 rlineto
          endchar
        </CharString>
        <CharString name="five.sinf">
          -245 83 53 108 67 hstem
          53 54 104 77 vstem
          114 311 45 callsubr
          -48 115 callsubr
          63 41 callgsubr
        </CharString>
        <CharString name="five.sups">
          -264 627 49 105 67 hstem
          46 54 100 77 vstem
          107 848 rmoveto
          12 callgsubr
          72 callgsubr
        </CharString>
        <CharString name="five.tf">
          -57 -84 87 callsubr
          hstem
          72 72 220 95 vstem
          169 652 -12 callgsubr
          -6 67 rlineto
          endchar
        </CharString>
        <CharString name="five.tosf">
          -57 -208 87 callsubr
          10 -20 hstemhm
          73 72 220 95 hintmask 11101100
          170 528 -12 callgsubr
          hintmask 11011100
          -6 67 rlineto
          endchar
        </CharString>
        <CharString name="fj">
          31 -214 -21 235 57 -41 -21 445 54 -18 18 97 129 -3 53 -10 53 callsubr
          104 58 36 118 -90 81 hintmask 1101001010010000
          429 353 rmoveto
          -332 -4 callsubr
          333 vlineto
          hintmask 1100101010010000
          50 7 103 0 vhcurveto
          hintmask 1101001011010000
          -19 18 rlineto
          -293 hlineto
          -2 72 rlineto
          91 7 60 81 vhcurveto
          3 hlineto
          7 -21 6 -22 -10 vvcurveto
          -36 vlineto
          53 -3 rlineto
          hintmask 1101000111010000
          11 135 rlineto
          hintmask 1011001011010000
          0 -44 10 -29 -115 -61 -68 -105 vhcurveto
          -86 vlineto
          -23 -10 -28 -10 -29 -9 3 -42 rcurveline
          77 -303 hlineto
          -21 callgsubr
          38 callsubr
          hintmask 1101001010010000
          80 69 -5 0 hvcurveto
          1 callgsubr
          hintmask 1011001010010000
          -98 7 rlineto
          hintmask 1101001010010000
          -27 callgsubr
          273 146 vlineto
          23 26 -5 -6 21 hvcurveto
          -86 callgsubr
          31 367 rmoveto
          -38 -21 -27 -38 hvcurveto
          hintmask 1101010010100000
          -65 callgsubr
          102 callgsubr
        </CharString>
        <CharString name="fl">
          49 -65 callsubr
          445 54 223 53 -32 18 59 callgsubr
          226 81 hintmask 10110110
          595 54 rmoveto
          16 callgsubr
          418 vlineto
          hintmask 10101110
          50 7 103 0 vhcurveto
          -19 18 rlineto
          -31 hlineto
          -65 -39 14 -65 hhcurveto
          hintmask 01110110
          74 callsubr
          -86 15 callsubr
          -21 callgsubr
          125 callgsubr
          69 -5 0 vhcurveto
          hintmask 10110110
          103 callgsubr
          hintmask 01110110
          -27 callgsubr
          hintmask 10110110
          273 135 103 callsubr
          -138 hlineto
          -2 72 rlineto
          90 5 61 90 40 68 -14 -3 12 vhcurveto
          1 -6 10 -60 -19 vvcurveto
          -478 vlineto
          -21 callgsubr
          -76 90 callsubr
          hintmask 01110110
          0 81 14 callgsubr
          59 -5 0 vhcurveto
          endchar
        </CharString>
        <CharString name="florin">
          -202 -194 53 581 54 223 53 -10 -20 hstemhm
          103 80 -69 80 hintmask 11101000
          96 10 rmoveto
          -90 -3 -7 -61 -89 hhcurveto
          -2 -53 rlineto
          114 63 68 105 4 hvcurveto
          16 461 rlineto
          135 hlineto
          7 54 rlineto
          hintmask 11100100
          -140 hlineto
          2 72 rlineto
          90 3 7 61 90 hhcurveto
          7 12 -1 -1 7 hvcurveto
          7 -20 5 -22 -9 vvcurveto
          -2 -36 53 -3 rlineto
          hintmask 11011000
          16 135 rlineto
          hintmask 11100100
          0 -62 10 -41 -115 -63 -68 -105 -4 vhcurveto
          -3 -86 rlineto
          hintmask 11101000
          -23 -14 -24 -4 -34 -11 2 -42 rcurveline
          77 hlineto
          endchar
        </CharString>
        <CharString name="foundryicon">
          157 61 152 52 157 135 87 hstem
          88 91 74 67 74 65 142 70 vstem
          591 61 rmoveto
          52 28 28 52 hvcurveto
          423 vlineto
          52 -28 28 -52 vhcurveto
          -423 hlineto
          -52 -28 -28 -52 hvcurveto
          -423 vlineto
          -52 28 -28 52 vhcurveto
          148 403 rmoveto
          45 33 -31 -42 hvcurveto
          -178 -74 136 vlineto
          38 -14 18 -29 -18 -6 -3 -9 vhcurveto
          -180 -74 344 74 -116 vlineto
          -6 2 -3 4 3 3 2 2 3 vhcurveto
          155 -14 rmoveto
          18 vlineto
          89 56 rlineto
          21 -28 hlineto
          -6 4 -4 6 vhcurveto
          58 -36 -58 hlineto
          -7 -3 -4 -6 hvcurveto
          -90 vlineto
          -40 12 -17 29 8 9 1 3 9 vhcurveto
          -25 vlineto
          -63 -37 rlineto
          -45 -33 31 42 hvcurveto
          132 vlineto
          7 -3 3 -7 vhcurveto
          endchar
        </CharString>
        <CharString name="four">
          -38 -65 callsubr
          206 54 hstemhm
          308 78 hintmask 10110000
          365 739 rmoveto
          -360 -485 44 -53 rlineto
          259 120 callsubr
          -103 90 callsubr
          0 118 5 20 vhcurveto
          hintmask 10110000
          80 50 -5 0 hvcurveto
          1 callgsubr
          hintmask 01110000
          -83 7 rlineto
          hintmask 10110000
          -2 14 -5 50 42 vvcurveto
          34 92 67 vlineto
          -92 -6 rlineto
          164 vlineto
          -78 -27 rlineto
          -142 vlineto
          -200 -3 187 280 rlineto
          15 23 124 131 14 callsubr
        </CharString>
        <CharString name="four.dnom">
          -200 0 72 callsubr
          hstemhm
          206 66 hintmask 01011000
          242 466 -34 callgsubr
        </CharString>
        <CharString name="four.numr">
          -219 300 46 70 46 71 -20 hstem
          194 66 vstem
          230 751 36 callgsubr
          4 47 28 callsubr
        </CharString>
        <CharString name="four.osf">
          -38 -209 -21 230 54 -54 64 hstemhm
          316 79 hintmask 11010000
          357 2 callgsubr
        </CharString>
        <CharString name="four.sinf">
          -200 -100 72 callsubr
          hstemhm
          206 66 hintmask 01011000
          242 366 -34 callgsubr
        </CharString>
        <CharString name="four.sups">
          -219 450 48 -4 -20 92 46 95 -20 hstemhm
          194 66 hintmask 10111000
          230 901 36 callgsubr
          hintmask 01111000
          4 47 rlineto
          hintmask 10111000
          28 callsubr
        </CharString>
        <CharString name="four.tf">
          -57 -65 callsubr
          206 54 hstemhm
          297 78 hintmask 10110000
          355 739 rmoveto
          -352 -485 43 -53 rlineto
          251 120 callsubr
          -100 -16 4 -50 rlineto
          0 114 5 20 vhcurveto
          hintmask 10110000
          79 50 -5 0 hvcurveto
          1 callgsubr
          hintmask 01110000
          -80 7 rlineto
          hintmask 10110000
          -2 14 -5 50 42 vvcurveto
          34 90 67 vlineto
          -90 -6 1 164 -78 -27 -1 -142 -192 -3 183 280 rlineto
          14 23 121 131 14 callsubr
        </CharString>
        <CharString name="four.tosf">
          -57 -209 -21 230 54 -54 64 hstemhm
          306 79 hintmask 11010000
          347 2 callgsubr
        </CharString>
        <CharString name="fraction">
          -507 721 -20 hstem
          -222 484 vstem
          212 721 86 callsubr
          433 738 rlineto
          endchar
        </CharString>
        <CharString name="g">
          -29 callsubr
          106 callsubr
          hintmask 1111001010000000
          hintmask 1110101010000000
          49 callsubr
          hintmask 1111001010000000
          -60 callsubr
          hintmask 1111000110000000
          -3 callsubr
          hintmask 1111010001000000
          -61 callgsubr
          hintmask 1111000101000000
          -69 callgsubr
          hintmask 1110110010000000
          -40 callsubr
          hintmask 1111010001000000
          130 -17 rlineto
          -23 callgsubr
          vhcurveto
          hintmask 1110110010000000
          19 8 16 35 43 vhcurveto
          hintmask 1111001010000000
          86 453 -46 callsubr
          endchar
        </CharString>
        <CharString name="g.sups">
          -239 307 43 186 36 148 37 hstemhm
          22 70 -57 76 -61 56 105 77 -39 66 hintmask 11101010
          309 711 rmoveto
          -2 45 -78 -13 rlineto
          9 -19 -23 5 -25 hhcurveto
          -76 -51 -44 -67 -43 21 -33 35 -19 hvcurveto
          hintmask 11100110
          -28 -24 -13 -16 -8 vvcurveto
          -25 9 -15 20 -12 vhcurveto
          hintmask 11110001
          -33 -21 -24 -23 -13 vvcurveto
          -57 44 -30 87 90 72 52 66 30 -11 18 -19 7 vhcurveto
          hintmask 11100101
          -19 6 -39 5 -66 7 rrcurveto
          -42 5 -13 5 13 vvcurveto
          4 4 6 8 10 vhcurveto
          -3 13 14 -2 16 hhcurveto
          hintmask 11110010
          76 51 44 67 27 -7 21 -15 17 hvcurveto
          -156 -272 rmoveto
          10 -3 12 -2 15 -2 rrcurveto
          hintmask 11110001
          80 -11 rlineto
          16 -2 6 -8 -14 vvcurveto
          -29 -29 -19 -44 -56 -28 17 36 vhcurveto
          hintmask 11110010
          10 4 10 14 17 vhcurveto
          hintmask 11101010
          52 280 rmoveto
          33 16 -23 -49 -51 -16 -25 -34 -33 -17 24 49 51 17 24 34 hvcurveto
          endchar
        </CharString>
        <CharString name="gbreve">
          -29 callsubr
          109 56 70 callgsubr
          -38 94 callgsubr
          -39 -85 callgsubr
          89 275 rmoveto
          -81 callgsubr
        </CharString>
        <CharString name="gcircumflex">
          -29 callsubr
          287 -20 106 callsubr
          hintmask 1111010101000000
          hintmask 1110110101000000
          49 callsubr
          hintmask 1111010101000000
          -60 callsubr
          hintmask 1111010011000000
          -3 callsubr
          hintmask 1111011000100000
          -61 callgsubr
          hintmask 1111010010100000
          -69 callgsubr
          hintmask 1110110101000000
          116 77 72 109 50 -16 43 -30 31 hvcurveto
          hintmask 1111010101000000
          -147 6 -46 callsubr
          hintmask 1111011000100000
          31 callsubr
          92 766 -86 callsubr
        </CharString>
        <CharString name="gcommaaccent">
          -29 callsubr
          278 -20 70 callgsubr
          40 102 59 87 -41 85 hintmask 1111010101100000
          hintmask 1110110101100000
          49 callsubr
          hintmask 1111010101100000
          -60 callsubr
          hintmask 1111010011100000
          -3 callsubr
          hintmask 1111011001010000
          -61 callgsubr
          hintmask 1111010011010000
          -69 callgsubr
          hintmask 1110110101100000
          116 77 72 109 50 -16 43 -30 31 hvcurveto
          hintmask 1111010101100000
          -147 6 -46 callsubr
          hintmask 1111011001010000
          31 callsubr
          133 614 rmoveto
          34 -23 14 -10 4 vhcurveto
          26 15 53 0 vhcurveto
          -37 12 rlineto
          0 -47 -80 -55 vvcurveto
          -42 19 -24 33 24 26 19 39 vhcurveto
          endchar
        </CharString>
        <CharString name="gdieresis">
          -29 callsubr
          116 119 70 callgsubr
          -71 29 callgsubr
          -72 -85 callgsubr
          124 261 rmoveto
          -98 callsubr
        </CharString>
        <CharString name="gdotaccent">
          -29 callsubr
          113 129 70 callgsubr
          42 118 41 87 -41 85 hintmask 1111010101100000
          hintmask 1110110101100000
          49 callsubr
          hintmask 1111010101100000
          -60 callsubr
          hintmask 1111010011100000
          -3 callsubr
          hintmask 1111011001010000
          -61 callgsubr
          hintmask 1111010011010000
          -69 callgsubr
          hintmask 1110111001100000
          -40 callsubr
          hintmask 1111011001010000
          130 -17 rlineto
          -23 callgsubr
          vhcurveto
          hintmask 1110111001100000
          19 8 16 35 43 vhcurveto
          hintmask 1111010101100000
          86 453 -46 callsubr
          6 268 -87 callsubr
          endchar
        </CharString>
        <CharString name="germandbls">
          58 -10 51 -41 61 -45 -21 716 59 59 callgsubr
          94 82 -81 63 99 70 -3 85 hintmask 1001110100000000
          hintmask 0011110100000000
          34 45 rmoveto
          -67 callsubr
          93 callsubr
          vhcurveto
          hintmask 0101110100000000
          52 hlineto
          -3 52 -3 65 50 vvcurveto
          379 vlineto
          102 16 63 105 76 60 -37 -65 vhcurveto
          -115 -163 11 -135 -155 230 7 -105 vvcurveto
          hintmask 1001110010000000
          -50 -29 -26 -50 -28 -26 5 18 -20 vhcurveto
          hintmask 1001101010000000
          -6 24 -6 26 10 vvcurveto
          38 vlineto
          -58 3 89 callgsubr
          66 -39 90 102 61 40 102 vhcurveto
          146 -233 12 87 vvcurveto
          hintmask 1001110010000000
          90 151 -2 144 vvcurveto
          hintmask 0101110100000000
          108 -98 53 -108 -125 -77 -68 -125 vhcurveto
          -66 15 callsubr
          -17 -7 -46 -2 -13 vhcurveto
          endchar
        </CharString>
        <CharString name="grave">
          755 -20 hstem
          66 227 vstem
          293 605 -33 callgsubr
        </CharString>
        <CharString name="grave.cap">
          539 148 hstem
          51 259 vstem
          51 614 rmoveto
          -20 callgsubr
        </CharString>
        <CharString name="greater">
          -7 6 -21 hstem
          102 356 vstem
          156 513 rmoveto
          -53 -53 253 -212 -254 -210 53 -53 303 262 rlineto
          endchar
        </CharString>
        <CharString name="greaterequal">
          66 callsubr
          -51 264 rmoveto
          -310 235 -46 -61 237 -174 -236 -174 45 -61 rlineto
          endchar
        </CharString>
        <CharString name="gtilde">
          -29 callsubr
          126 68 -27 68 106 callsubr
          hintmask 1111001010100000
          hintmask 1110101010100000
          49 callsubr
          hintmask 1111001010100000
          -60 callsubr
          hintmask 1111001001100000
          -3 callsubr
          hintmask 1111001100010000
          -61 callgsubr
          hintmask 1111001001010000
          -69 callgsubr
          hintmask 1110101100100000
          -40 callsubr
          hintmask 1111001100010000
          130 -17 rlineto
          -23 callgsubr
          vhcurveto
          hintmask 1110101100100000
          19 8 16 35 43 vhcurveto
          hintmask 1111010010100000
          86 453 -46 callsubr
          133 271 -9 callsubr
          hintmask 1111001010100000
          -40 -75 -36 callgsubr
          hintmask 1111010010100000
          19 callsubr
        </CharString>
        <CharString name="guillemotleft">
          -151 20 444 hstem
          25 349 63 callgsubr
          10 -222 rmoveto
          150 -218 36 25 -104 193 104 193 -36 25 rlineto
          endchar
        </CharString>
        <CharString name="guillemotright">
          -152 19 444 hstem
          42 349 vstem
          391 71 callgsubr
          -10 222 rmoveto
          -150 218 -36 -25 104 -193 -104 -193 36 -25 rlineto
          endchar
        </CharString>
        <CharString name="guilsinglleft">
          -310 20 444 hstem
          25 190 63 callgsubr
          endchar
        </CharString>
        <CharString name="guilsinglright">
          -310 19 444 hstem
          42 190 vstem
          232 71 callgsubr
          endchar
        </CharString>
        <CharString name="h">
          27 -65 callsubr
          447 61 188 -24 callgsubr
          hstemhm
          106 81 231 81 hintmask 1010101110000000
          hintmask 1010010110000000
          120 callgsubr
          hintmask 0111000110000000
          -59 callsubr
          -478 -74 callgsubr
          hintmask 1010101110000000
          -41 callgsubr
          hintmask 0110101110000000
          -78 7 rlineto
          hintmask 1010101110000000
          -1 8 -5 54 44 -81 callsubr
          hintmask 0110101110000000
          -43 callsubr
          hintmask 1010101110000000
          16 callgsubr
          hintmask 0110101110000000
          109 vlineto
          hintmask 1010101110000000
          138 -31 89 -138 -68 -48 -36 -40 -27 vhcurveto
          158 67 callgsubr
        </CharString>
        <CharString name="h.sups">
          -178 450 43 -8 8 213 51 -44 -20 208 10 hstemhm
          67 70 123 71 hintmask 10101110
          -37 callsubr
          53 vlineto
          57 1 30 35 39 hhcurveto
          41 12 67 callsubr
          hintmask 01101110
          -38 -8 rlineto
          hintmask 10101110
          77 callgsubr
          0 -5 38 30 vvcurveto
          75 vlineto
          76 -29 45 -78 -39 -28 -19 -25 -20 vhcurveto
          hintmask 10011110
          84 vlineto
          30 4 50 2 24 vhcurveto
          -13 11 -46 39 callsubr
          endchar
        </CharString>
        <CharString name="hbar">
          27 -65 callsubr
          447 61 60 44 84 -24 callgsubr
          hstemhm
          106 81 231 81 hintmask 1011010111000000
          hintmask 1011001011000000
          120 callgsubr
          hintmask 0111100011000000
          -59 callsubr
          -8 -93 -44 93 -426 -74 callgsubr
          hintmask 1011010111000000
          -41 callgsubr
          hintmask 0111010111000000
          -78 7 rlineto
          hintmask 1011010111000000
          -1 8 -5 54 44 -81 callsubr
          hintmask 0111010111000000
          -43 callsubr
          hintmask 1011010111000000
          16 callgsubr
          hintmask 0111010111000000
          109 vlineto
          hintmask 1011010111000000
          138 -31 89 -138 -68 -48 -36 -40 -27 vhcurveto
          136 110 44 -110 vlineto
          1 46 3 58 3 27 -19 18 rcurveline
          10 callgsubr
          -72 -20 callsubr
          endchar
        </CharString>
        <CharString name="hcircumflex">
          27 -65 callsubr
          447 61 188 -23 callsubr
          124 81 231 81 hintmask 1010101011000000
          hintmask 1010010011000000
          38 707 rmoveto
          hintmask 0111000011000000
          -59 callsubr
          -478 -74 callgsubr
          hintmask 1010101011000000
          -41 callgsubr
          hintmask 0110101011000000
          -78 7 rlineto
          hintmask 1010101011000000
          -1 8 -5 54 44 -81 callsubr
          hintmask 0110101011000000
          -43 callsubr
          hintmask 1010101011000000
          16 callgsubr
          hintmask 0110101011000000
          109 vlineto
          hintmask 1010101011000000
          138 -31 89 -138 -68 -48 -36 -40 -27 vhcurveto
          158 vlineto
          47 4 75 3 31 -32 callsubr
          106 154 rmoveto
          -174 -107 23 -39 88 41 rlineto
          hintmask 1010100111000000
          63 25 63 -25 88 -41 23 39 rlineto
          endchar
        </CharString>
        <CharString name="hungarumlaut">
          765 -20 hstem
          -17 442 vstem
          376 765 rmoveto
          -21 callsubr
        </CharString>
        <CharString name="hungarumlaut.cap">
          523 179 hstem
          -23 466 vstem
          188 702 rmoveto
          -211 -136 -7 callsubr
        </CharString>
        <CharString name="hyphen">
          -285 216 75 hstemhm
          30 222 -221 218 hintmask 11000000
          hintmask 10100000
          32 216 rmoveto
          215 hlineto
          5 75 rlineto
          -222 hlineto
          endchar
        </CharString>
        <CharString name="i">
          -64 callgsubr
        </CharString>
        <CharString name="i.sups">
          -362 450 43 223 -20 45 10 5 -20 69 90 hstemhm
          64 87 -78 70 hintmask 11011010
          192 489 rmoveto
          -43 39 callgsubr
          76 vlineto
          hintmask 11101010
          31 6 73 0 vhcurveto
          hintmask 11011010
          -13 11 -46 39 callsubr
          -4 -40 46 -10 rlineto
          0 7 -38 -13 vvcurveto
          -112 vlineto
          -12 -6 -38 0 vhcurveto
          91 callsubr
          hintmask 11011100
          -82 448 rmoveto
          -28 -15 -19 -26 -27 15 -18 28 28 16 18 27 28 -17 17 -27 hvcurveto
          endchar
        </CharString>
        <CharString name="iacute">
          -43 callgsubr
          -44 760 rmoveto
          -180 -150 rlineto
          hintmask 01001011
          -64 callsubr
        </CharString>
        <CharString name="ibreve">
          -56 callgsubr
          109 56 hstemhm
          12 56 54 81 31 56 hintmask 1000101111000000
          -71 callgsubr
          hintmask 1000011111000000
          -5 -53 rlineto
          hintmask 1001001111000000
          76 -16 rlineto
          hintmask 0110001111000000
          -95 callgsubr
          49 -5 0 vhcurveto
          hintmask 1000101111000000
          -47 732 rmoveto
          -50 -33 -34 -50 vhcurveto
          hintmask 0100101111000000
          -50 -33 34 50 hvcurveto
          -56 hlineto
          -90 49 -50 90 90 49 50 90 vhcurveto
          endchar
        </CharString>
        <CharString name="icircumflex">
          -56 callgsubr
          287 -20 hstemhm
          132 81 hintmask 10001011
          298 -29 callgsubr
          hintmask 10000111
          -5 -53 rlineto
          hintmask 10010011
          76 -16 rlineto
          hintmask 01100011
          -95 callgsubr
          49 -5 0 vhcurveto
          hintmask 10001011
          -140 770 rmoveto
          -166 -169 rlineto
          hintmask 01001011
          -83 callgsubr
        </CharString>
        <CharString name="idieresis">
          -56 callgsubr
          116 119 hstemhm
          -8 108 22 81 -35 108 hintmask 1000101010000000
          hintmask 1000101101000000
          222 713 26 callsubr
          hintmask 1000101010000000
          242 -659 rmoveto
          -91 callgsubr
          hintmask 1000011010000000
          -5 -53 rlineto
          hintmask 1001001010000000
          76 -16 rlineto
          hintmask 0110001010000000
          -95 callgsubr
          49 -5 0 vhcurveto
          endchar
        </CharString>
        <CharString name="idotaccent">
          -64 callgsubr
        </CharString>
        <CharString name="igrave">
          -43 callgsubr
          -37 610 rmoveto
          -180 150 rlineto
          hintmask 01001011
          -28 callgsubr
        </CharString>
        <CharString name="ij">
          7 -214 -21 225 64 375 65 -49 49 -18 18 4 88 callsubr
          70 118 -90 81 196 118 -87 81 hintmask 1100101010100000
          hintmask 1101001010100000
          320 445 rmoveto
          hintmask 1110001010100000
          -59 callsubr
          -143 vlineto
          -80 -44 -76 -82 -74 -27 55 74 vhcurveto
          140 vlineto
          hintmask 1100101010100000
          -84 callgsubr
          hintmask 1100011010100000
          -5 -53 rlineto
          hintmask 1101001010100000
          76 -16 rlineto
          hintmask 1110001010100000
          -86 callgsubr
          -136 vlineto
          -135 26 -92 138 84 43 45 33 22 vhcurveto
          1 -46 rlineto
          -40 -82 -196 0 vhcurveto
          36 -21 rlineto
          0 121 185 40 vvcurveto
          333 vlineto
          50 7 103 0 vhcurveto
          hintmask 1100101010100000
          17 callgsubr
          -72 -20 callsubr
          -196 222 rmoveto
          hintmask 1100011100100000
          -38 -21 -27 -38 -38 21 -26 38 -76 callgsubr
          305 hmoveto
          -38 -21 -27 -38 hvcurveto
          hintmask 1100101011000000
          -65 callgsubr
          102 callgsubr
        </CharString>
        <CharString name="imacron">
          -56 callgsubr
          118 53 hstemhm
          90 81 hintmask 10001011
          243 596 rmoveto
          5 53 rlineto
          -258 -53 hlineto
          266 -542 rmoveto
          -91 callgsubr
          hintmask 10000111
          -5 -53 rlineto
          hintmask 10010011
          76 -16 rlineto
          hintmask 01100011
          -95 callgsubr
          49 -5 0 vhcurveto
          endchar
        </CharString>
        <CharString name="infinity">
          183 138 87 221 87 -86 87 hstemhm
          40 47 576 47 hintmask 11011000
          201 138 rmoveto
          93 44 55 67 37 hvcurveto
          -54 33 59 -69 80 hhcurveto
          105 58 96 102 104 -59 94 -102 -94 -44 -55 -67 -37 hvcurveto
          hintmask 10111000
          54 -33 -59 69 -79 hhcurveto
          -105 -58 -96 -102 hvcurveto
          hintmask 11011000
          -104 59 -94 102 vhcurveto
          hintmask 10111000
          2 309 rmoveto
          68 51 -48 -34 28 hvcurveto
          -1 vlineto
          -74 -38 -36 -65 -77 hhcurveto
          -61 -51 53 58 63 50 48 66 hvcurveto
          197 -140 rmoveto
          hintmask 11011000
          74 39 35 65 77 hhcurveto
          61 51 -53 -58 -63 -50 -48 -66 -69 -51 47 34 -28 hvcurveto
          hintmask 10111000
          1 1 0 1 vvcurveto
          endchar
        </CharString>
        <CharString name="integral">
          -7 -235 55 840 55 -9 -20 hstemhm
          238 71 -28 71 hintmask 11010000
          309 544 rmoveto
          63 17 53 69 17 13 -3 -4 11 vhcurveto
          hintmask 10110000
          11 53 rlineto
          hintmask 11010000
          6 -16 -17 3 -19 hhcurveto
          -103 -54 -70 -101 hvcurveto
          -170 43 -298 -140 vvcurveto
          hintmask 11001000
          -63 -17 -53 -69 -17 -13 3 4 -11 vhcurveto
          -11 -53 rlineto
          -6 16 17 -3 19 hhcurveto
          103 54 70 101 hvcurveto
          170 -43 298 140 vvcurveto
          endchar
        </CharString>
        <CharString name="iogonek">
          -266 -197 42 150 104 callsubr
          113 129 hstemhm
          21 64 7 118 -88 81 hintmask 1100010110100000
          94 16 rmoveto
          -50 -59 -23 -21 -44 vvcurveto
          -60 41 -29 57 35 30 14 8 16 vhcurveto
          -14 33 rlineto
          -9 -20 -16 -4 -14 hhcurveto
          -35 -16 24 29 hvcurveto
          hintmask 1010010110100000
          42 26 52 64 8 vhcurveto
          hintmask 1100010110100000
          66 -1 40 -4 0 vvcurveto
          7 59 -91 callgsubr
          hintmask 1100001110100000
          -5 -53 rlineto
          hintmask 1100100110100000
          76 -16 rlineto
          hintmask 1101000110100000
          -86 callgsubr
          -215 vlineto
          -1 -77 -5 -20 -22 -25 rrcurveto
          hintmask 1100010110100000
          57 704 rmoveto
          hintmask 1100010101000000
          -38 -21 -27 -38 -38 21 -26 38 -76 callgsubr
          endchar
        </CharString>
        <CharString name="itilde">
          -56 callgsubr
          126 81 callsubr
          114 81 hintmask 1000100110000000
          hintmask 1000101010000000
          238 723 -9 callsubr
          hintmask 1000100110000000
          -35 -46 41 -34 -35 callgsubr
          hintmask 1000101010000000
          35 44 -41 36 hhcurveto
          39 43 98 0 hvcurveto
          6 -648 rmoveto
          -91 callgsubr
          hintmask 1000010110000000
          -5 -53 rlineto
          hintmask 1001000110000000
          76 -16 rlineto
          hintmask 0110000110000000
          -95 callgsubr
          49 -5 0 vhcurveto
          endchar
        </CharString>
        <CharString name="j">
          -288 78 callgsubr
          4 88 callsubr
          82 118 -89 81 hintmask 10010101
          hintmask 10100101
          25 445 rmoveto
          hintmask 11000101
          -59 callsubr
          -332 -4 callsubr
          333 vlineto
          hintmask 10010101
          -84 callgsubr
          hintmask 10001101
          111 222 rmoveto
          hintmask 10010110
          -38 -21 -27 -38 -38 21 -26 38 -76 callgsubr
          endchar
        </CharString>
        <CharString name="j.sups">
          -376 716 -20 45 10 5 -20 69 90 hstemhm
          51 87 -73 71 hintmask 10110100
          13 716 rmoveto
          101 callsubr
          -192 vlineto
          -25 -46 -117 0 vhcurveto
          26 -14 rlineto
          0 91 112 25 vvcurveto
          193 vlineto
          hintmask 11010100
          31 6 73 0 vhcurveto
          hintmask 10110100
          -13 11 -46 39 callsubr
          hintmask 10111000
          78 139 rmoveto
          -28 -16 -19 -26 -27 16 -18 28 28 15 18 27 28 -16 17 -27 hvcurveto
          endchar
        </CharString>
        <CharString name="jcircumflex">
          -289 78 callgsubr
          75 callgsubr
          121 81 hintmask 10010110
          hintmask 10100110
          35 445 rmoveto
          hintmask 11000110
          -59 callsubr
          -332 -4 callsubr
          333 vlineto
          hintmask 10010110
          -84 callgsubr
          hintmask 10001110
          99 267 -86 callsubr
        </CharString>
        <CharString name="k">
          5 -5 62 -57 57 380 57 197 -23 callsubr
          106 81 135 218 hintmask 0110101010000000
          hintmask 0110010010000000
          120 callgsubr
          hintmask 1011000010000000
          -59 callsubr
          -478 -74 callgsubr
          hintmask 0110101010000000
          -41 callgsubr
          hintmask 1010101010000000
          -78 7 rlineto
          hintmask 0110101010000000
          -70 callsubr
          338 -323 rmoveto
          -165 -172 rlineto
          hintmask 0110100110000000
          42 callsubr
          hintmask 1010101011000000
          32 callsubr
          0 -47 -5 -80 -20 -67 3 0 vhcurveto
          -5 -52 rlineto
          endchar
        </CharString>
        <CharString name="k.sups">
          -191 450 43 219 38 -35 -20 206 10 hstemhm
          67 70 66 155 hintmask 10111000
          -37 callsubr
          236 vlineto
          30 4 50 2 24 vhcurveto
          -13 11 -46 39 callsubr
          hintmask 11011100
          215 -205 rmoveto
          -89 -99 70 -94 21 -29 -14 -5 12 -35 62 1 rlineto
          41 33 -3 0 hvcurveto
          4 42 -38 4 -20 18 -27 23 -5 7 rlinecurve
          -63 80 45 52 9 11 27 16 19 11 rlinecurve
          39 3 rlineto
          40 vlineto
          0 -39 -3 -36 -30 -49 3 0 vhcurveto
          -3 -39 rlineto
          endchar
        </CharString>
        <CharString name="kcommaaccent">
          5 -5 62 -57 57 380 57 5 -20 212 -23 callsubr
          106 81 63 102 -30 218 hintmask 0110010101000000
          hintmask 0110001001000000
          120 callgsubr
          hintmask 1010100001000000
          -59 callsubr
          -478 -74 callgsubr
          hintmask 0110010101000000
          -41 callgsubr
          hintmask 1010010101000000
          -78 7 rlineto
          hintmask 0110010101000000
          -70 callsubr
          338 -323 rmoveto
          -165 -172 rlineto
          hintmask 0110010011000000
          42 callsubr
          hintmask 1010010101010000
          32 callsubr
          0 -47 -5 -80 -20 -67 3 0 vhcurveto
          -5 -52 rlineto
          hintmask 0101010101010000
          -70 -561 rmoveto
          16 callsubr
          hintmask 0110010101010000
          51 callgsubr
          37 -12 rlineto
          0 47 80 55 vvcurveto
          hintmask 0110010101100000
          42 -19 24 -33 -24 -26 -19 -39 vhcurveto
          endchar
        </CharString>
        <CharString name="kgreenlandic">
          20 -5 62 -57 57 380 57 -49 -22 callsubr
          21 53 callsubr
          134 218 hintmask 0110000100000000
          378 437 rmoveto
          -165 -172 142 -150 51 -56 -57 -11 5 -50 102 2 rlineto
          -62 callgsubr
          hvcurveto
          hintmask 1010000110000000
          7 59 -63 6 -33 25 -46 32 -11 12 rlinecurve
          32 callsubr
          hintmask 0100001110000000
          0 -47 -5 -80 -20 -67 3 0 vhcurveto
          hintmask 0110000110000000
          -5 -52 rlineto
          -47 -391 rmoveto
          -78 7 rlineto
          0 -7 -66 callgsubr
          hintmask 0100100100000000
          -58 hlineto
          hintmask 0110000100000000
          -20 -72 -20 callsubr
          -5 -53 76 -16 rlineto
          hintmask 0100010100000000
          -86 callgsubr
          hintmask 1001000100000000
          -216 vlineto
          -21 callgsubr
          125 callgsubr
          49 -5 0 vhcurveto
          endchar
        </CharString>
        <CharString name="l">
          -274 96 callsubr
          hstemhm
          106 81 hintmask 10010110
          hintmask 10001010
          120 callgsubr
          hintmask 01100010
          -59 callsubr
          -478 -74 callgsubr
          hintmask 10010110
          -41 callgsubr
          hintmask 01010110
          -78 7 rlineto
          hintmask 10010110
          -70 callsubr
          endchar
        </CharString>
        <CharString name="l.sups">
          -365 450 43 408 10 hstem
          67 70 vstem
          -37 callsubr
          236 vlineto
          30 4 50 2 24 vhcurveto
          -13 11 -46 39 callsubr
          endchar
        </CharString>
        <CharString name="lacute">
          -274 96 callsubr
          4 -20 hstemhm
          106 81 hintmask 10010101
          hintmask 10001001
          120 callgsubr
          hintmask 01100001
          -59 callsubr
          -478 -74 callgsubr
          hintmask 10010101
          -41 callgsubr
          hintmask 01010101
          -78 7 rlineto
          hintmask 10010101
          -70 callsubr
          235 189 rmoveto
          -229 -100 rlineto
          hintmask 10010011
          -82 callgsubr
        </CharString>
        <CharString name="lcaron">
          -231 96 callsubr
          hstemhm
          106 81 68 64 hintmask 10010111
          247 756 rmoveto
          0 8 4 callsubr
          hintmask 10001011
          -306 -49 rmoveto
          hintmask 01100011
          -59 callsubr
          -478 -74 callgsubr
          hintmask 10010111
          -41 callgsubr
          hintmask 01010111
          -78 7 rlineto
          hintmask 10010111
          -70 callsubr
          endchar
        </CharString>
        <CharString name="lcommaaccent">
          -274 96 callsubr
          4 -20 hstemhm
          97 102 -93 81 hintmask 1001010010000000
          hintmask 1000100010000000
          120 callgsubr
          hintmask 0110000010000000
          -59 callsubr
          -478 -74 callgsubr
          hintmask 1001010010000000
          -41 callgsubr
          hintmask 0101010010000000
          -78 7 rlineto
          hintmask 1001010010000000
          -70 callsubr
          72 -876 rmoveto
          16 callsubr
          hintmask 1001001010000000
          51 callgsubr
          hintmask 1001010100000000
          -74 callsubr
        </CharString>
        <CharString name="ldot">
          -209 -65 callsubr
          235 139 322 -23 callsubr
          106 81 43 128 hintmask 1010101010000000
          hintmask 1010010010000000
          120 callgsubr
          hintmask 0111000010000000
          -59 callsubr
          -478 -74 callgsubr
          hintmask 1010101010000000
          -41 callgsubr
          hintmask 0110101010000000
          -78 7 rlineto
          hintmask 1010101010000000
          -70 callsubr
          269 -391 rmoveto
          -41 -23 -29 -41 hvcurveto
          hintmask 1010100111000000
          -41 23 -28 41 41 23 28 41 44 -24 26 -40 vhcurveto
          endchar
        </CharString>
        <CharString name="less">
          -7 6 -21 hstem
          102 356 vstem
          102 247 rmoveto
          303 -262 53 53 -254 210 253 212 -53 53 rlineto
          endchar
        </CharString>
        <CharString name="lessequal">
          66 callsubr
          -407 264 rmoveto
          310 -235 46 61 -237 174 236 174 -45 61 rlineto
          endchar
        </CharString>
        <CharString name="logicalnot">
          -7 238 69 hstem
          440 70 vstem
          55 307 rmoveto
          -71 vlineto
          386 4 -2 -171 rlineto
          71 238 hlineto
          endchar
        </CharString>
        <CharString name="lozenge">
          -7 2 568 hstem
          18 524 vstem
          280 570 rmoveto
          -262 -286 262 -282 262 282 rlineto
          -262 -174 rmoveto
          -163 175 163 177 163 -177 rlineto
          endchar
        </CharString>
        <CharString name="lslash">
          -274 -65 callsubr
          505 -20 211 -24 callgsubr
          hstemhm
          106 81 hintmask 10101011
          hintmask 10100101
          120 callgsubr
          hintmask 01110001
          -59 callsubr
          -178 vlineto
          -106 -38 15 -41 91 33 rlineto
          -254 -74 callgsubr
          hintmask 10101011
          -41 callgsubr
          hintmask 01101011
          -78 7 rlineto
          hintmask 10101011
          55 callgsubr
          253 vlineto
          107 39 -15 41 -92 -33 rlineto
          118 67 callgsubr
        </CharString>
        <CharString name="m">
          323 33 callgsubr
          hstemhm
          122 81 215 81 215 81 cntrmask 0000001110000000
          hintmask 1001001110000000
          344 503 rmoveto
          -75 -51 -45 -46 -24 hvcurveto
          hintmask 1010001110000000
          -6 64 40 callsubr
          -221 vlineto
          -2 -23 -8 -48 0 vvcurveto
          125 callgsubr
          49 99 callgsubr
          -78 7 rlineto
          hintmask 0101001110000000
          -27 callgsubr
          hintmask 1001001110000000
          107 vlineto
          98 1 48 70 75 hhcurveto
          75 16 -82 -84 hvcurveto
          -139 vlineto
          -25 -5 -29 -5 -22 vhcurveto
          -67 90 callsubr
          hintmask 0101001110000000
          7 callsubr
          7 59 -78 7 rlineto
          hintmask 1001001110000000
          -27 callgsubr
          109 vlineto
          hintmask 0101001110000000
          7 vlineto
          hintmask 1001001110000000
          94 3 48 65 73 hhcurveto
          75 16 -82 -84 hvcurveto
          -139 vlineto
          -25 -5 -29 -5 -22 vhcurveto
          -67 90 callsubr
          7 callsubr
          hintmask 0101001110000000
          7 59 16 callgsubr
          109 vlineto
          hintmask 1001001110000000
          138 -28 89 -127 -76 -53 -46 -49 -28 vhcurveto
          hintmask 0101001110000000
          60 -19 -41 35 -79 hhcurveto
          endchar
        </CharString>
        <CharString name="m.sups">
          2 450 43 -8 8 0 263 -50 51 -41 -20 hstemhm
          73 70 114 70 113 71 hintmask 10010111
          230 757 rmoveto
          -45 -30 -25 -33 -21 hvcurveto
          -5 42 -13 11 -26 39 callsubr
          hintmask 10001111
          -4 -40 rlineto
          hintmask 10010111
          23 callsubr
          57 vlineto
          54 2 28 34 36 hhcurveto
          37 11 -35 -40 hvcurveto
          -88 vlineto
          -10 -3 -22 -2 -18 vhcurveto
          hintmask 01010111
          -38 -8 rlineto
          hintmask 10010111
          58 callsubr
          53 vlineto
          57 1 28 35 37 hhcurveto
          36 11 67 callsubr
          hintmask 01010111
          -38 -8 rlineto
          hintmask 10010111
          77 callgsubr
          hintmask 00100111
          118 callsubr
          75 vlineto
          hintmask 10010111
          76 -27 45 -70 -44 -31 -24 -33 -21 vhcurveto
          37 -13 -28 20 -47 hhcurveto
          endchar
        </CharString>
        <CharString name="macron">
          596 53 hstem
          19 322 vstem
          336 596 24 callsubr
        </CharString>
        <CharString name="macron.cap">
          576 53 hstem
          19 322 vstem
          336 576 24 callsubr
        </CharString>
        <CharString name="minus">
          -7 220 73 hstem
          53 455 vstem
          508 223 rmoveto
          71 -455 -76 vlineto
          endchar
        </CharString>
        <CharString name="mu">
          13 -10 64 -48 -21 509 -20 23 -20 hstemhm
          95 81 227 81 hintmask 10011100
          396 491 rmoveto
          7 -134 rlineto
          -147 vlineto
          -80 -44 -76 -82 -74 -27 55 74 vhcurveto
          144 92 callgsubr
          vhcurveto
          hintmask 10101100
          -7 -30 3 0 hvcurveto
          -6 -6 rlineto
          hintmask 10011100
          7 -134 rlineto
          -404 vlineto
          -17 -4 -112 1 -34 vhcurveto
          9 -8 rlineto
          0 33 4 25 vhcurveto
          22 hlineto
          9 8 rlineto
          0 -19 109 -1 20 vhcurveto
          -5 110 rlineto
          -26 23 33 -17 43 hhcurveto
          84 40 45 33 20 hvcurveto
          18 -54 56 -12 47 -17 19 42 rcurveline
          hintmask 01011100
          -54 30 -10 19 61 vvcurveto
          190 92 callgsubr
          -11 -26 3 0 vhcurveto
          endchar
        </CharString>
        <CharString name="multiply">
          -29 40 417 hstem
          60 418 vstem
          268 299 rmoveto
          -158 156 -50 -50 157 -157 -155 -158 50 -50 157 156 156 -155 53 53 -157 154 156 156 -53 53 rlineto
          endchar
        </CharString>
        <CharString name="n">
          107 callgsubr
          59 callgsubr
          231 81 hintmask 10010110
          hintmask 10001110
          36 445 rmoveto
          hintmask 01100110
          -49 callsubr
          hintmask 10010110
          -41 callgsubr
          hintmask 01010110
          -78 7 rlineto
          hintmask 10010110
          0 -7 56 50 -81 callsubr
          hintmask 01010110
          -43 callsubr
          hintmask 10010110
          16 callgsubr
          hintmask 01010110
          109 vlineto
          hintmask 10010110
          12 callsubr
          -6 64 -39 callsubr
          endchar
        </CharString>
        <CharString name="n.sups">
          -172 450 43 -8 8 213 51 -41 -20 hstemhm
          73 70 123 71 hintmask 10101100
          hintmask 10011100
          20 716 rmoveto
          hintmask 10101100
          23 callsubr
          53 vlineto
          57 1 30 35 39 hhcurveto
          41 12 67 callsubr
          hintmask 01101100
          -38 -8 rlineto
          hintmask 10101100
          58 callsubr
          75 vlineto
          76 -28 45 -76 -46 -31 -25 -33 -22 vhcurveto
          -5 42 -13 11 -26 39 callsubr
          endchar
        </CharString>
</ttFont>
